<svg width="202" height="202" viewBox="0 0 202 202" fill="none" xmlns="http://www.w3.org/2000/svg">
<path d="M96 100.077H105.6C106.873 100.077 108.094 99.5717 108.994 98.6715C109.894 97.7714 110.4 96.5505 110.4 95.2774V85.6774C110.4 84.4044 109.894 83.1835 108.994 82.2833C108.094 81.3832 106.873 80.8774 105.6 80.8774H96C94.7269 80.8774 93.506 81.3832 92.6058 82.2833C91.7057 83.1835 91.2 84.4044 91.2 85.6774V95.2774C91.2 96.5505 91.7057 97.7714 92.6058 98.6715C93.506 99.5717 94.7269 100.077 96 100.077ZM96 85.6774H105.6V95.2774H96V85.6774Z" fill="#002C22"/>
<path d="M120 100.077H129.6C130.873 100.077 132.094 99.5717 132.994 98.6715C133.894 97.7714 134.4 96.5505 134.4 95.2774V85.6774C134.4 84.4044 133.894 83.1835 132.994 82.2833C132.094 81.3832 130.873 80.8774 129.6 80.8774H120C118.727 80.8774 117.506 81.3832 116.606 82.2833C115.706 83.1835 115.2 84.4044 115.2 85.6774V95.2774C115.2 96.5505 115.706 97.7714 116.606 98.6715C117.506 99.5717 118.727 100.077 120 100.077ZM120 85.6774H129.6V95.2774H120V85.6774Z" fill="#3FE3CA"/>
<path d="M144 100.077H153.6C154.873 100.077 156.094 99.5717 156.994 98.6715C157.894 97.7714 158.4 96.5505 158.4 95.2774V85.6774C158.4 84.4044 157.894 83.1835 156.994 82.2833C156.094 81.3832 154.873 80.8774 153.6 80.8774H144C142.727 80.8774 141.506 81.3832 140.606 82.2833C139.706 83.1835 139.2 84.4044 139.2 85.6774V95.2774C139.2 96.5505 139.706 97.7714 140.606 98.6715C141.506 99.5717 142.727 100.077 144 100.077ZM144 85.6774H153.6V95.2774H144V85.6774Z" fill="#002C22"/>
<path d="M48 124.077H57.6C58.873 124.077 60.0939 123.572 60.9941 122.672C61.8942 121.771 62.4 120.55 62.4 119.277V109.677C62.4 108.404 61.8942 107.183 60.9941 106.283C60.0939 105.383 58.873 104.877 57.6 104.877H48C46.7269 104.877 45.506 105.383 44.6058 106.283C43.7057 107.183 43.2 108.404 43.2 109.677V119.277C43.2 120.55 43.7057 121.771 44.6058 122.672C45.506 123.572 46.7269 124.077 48 124.077ZM48 109.677H57.6V119.277H48V109.677Z" fill="#3FE3CA"/>
<path d="M72 124.077H81.6C82.873 124.077 84.0939 123.572 84.9941 122.672C85.8942 121.771 86.4 120.55 86.4 119.277V109.677C86.4 108.404 85.8942 107.183 84.9941 106.283C84.0939 105.383 82.873 104.877 81.6 104.877H72C70.7269 104.877 69.506 105.383 68.6058 106.283C67.7057 107.183 67.2 108.404 67.2 109.677V119.277C67.2 120.55 67.7057 121.771 68.6058 122.672C69.506 123.572 70.7269 124.077 72 124.077ZM72 109.677H81.6V119.277H72V109.677Z" fill="#002C22"/>
<path d="M96 124.077H105.6C106.873 124.077 108.094 123.572 108.994 122.672C109.894 121.771 110.4 120.55 110.4 119.277V109.677C110.4 108.404 109.894 107.183 108.994 106.283C108.094 105.383 106.873 104.877 105.6 104.877H96C94.7269 104.877 93.506 105.383 92.6058 106.283C91.7057 107.183 91.2 108.404 91.2 109.677V119.277C91.2 120.55 91.7057 121.771 92.6058 122.672C93.506 123.572 94.7269 124.077 96 124.077ZM96 109.677H105.6V119.277H96V109.677Z" fill="#3FE3CA"/>
<path d="M120 124.077H129.6C130.873 124.077 132.094 123.572 132.994 122.672C133.894 121.771 134.4 120.55 134.4 119.277V109.677C134.4 108.404 133.894 107.183 132.994 106.283C132.094 105.383 130.873 104.877 129.6 104.877H120C118.727 104.877 117.506 105.383 116.606 106.283C115.706 107.183 115.2 108.404 115.2 109.677V119.277C115.2 120.55 115.706 121.771 116.606 122.672C117.506 123.572 118.727 124.077 120 124.077ZM120 109.677H129.6V119.277H120V109.677Z" fill="#002C22"/>
<path d="M144 124.077H153.6C154.873 124.077 156.094 123.572 156.994 122.672C157.894 121.771 158.4 120.55 158.4 119.277V109.677C158.4 108.404 157.894 107.183 156.994 106.283C156.094 105.383 154.873 104.877 153.6 104.877H144C142.727 104.877 141.506 105.383 140.606 106.283C139.706 107.183 139.2 108.404 139.2 109.677V119.277C139.2 120.55 139.706 121.771 140.606 122.672C141.506 123.572 142.727 124.077 144 124.077ZM144 109.677H153.6V119.277H144V109.677Z" fill="#3FE3CA"/>
<path d="M48 148.077H57.6C58.873 148.077 60.0939 147.572 60.9941 146.672C61.8942 145.771 62.4 144.55 62.4 143.277V133.677C62.4 132.404 61.8942 131.183 60.9941 130.283C60.0939 129.383 58.873 128.877 57.6 128.877H48C46.7269 128.877 45.506 129.383 44.6058 130.283C43.7057 131.183 43.2 132.404 43.2 133.677V143.277C43.2 144.55 43.7057 145.771 44.6058 146.672C45.506 147.572 46.7269 148.077 48 148.077ZM48 133.677H57.6V143.277H48V133.677Z" fill="#002C22"/>
<path d="M72 148.077H81.6C82.873 148.077 84.0939 147.572 84.9941 146.672C85.8942 145.771 86.4 144.55 86.4 143.277V133.677C86.4 132.404 85.8942 131.183 84.9941 130.283C84.0939 129.383 82.873 128.877 81.6 128.877H72C70.7269 128.877 69.506 129.383 68.6058 130.283C67.7057 131.183 67.2 132.404 67.2 133.677V143.277C67.2 144.55 67.7057 145.771 68.6058 146.672C69.506 147.572 70.7269 148.077 72 148.077ZM72 133.677H81.6V143.277H72V133.677Z" fill="#3FE3CA"/>
<path d="M96 148.077H105.6C106.873 148.077 108.094 147.572 108.994 146.672C109.894 145.771 110.4 144.55 110.4 143.277V133.677C110.4 132.404 109.894 131.183 108.994 130.283C108.094 129.383 106.873 128.877 105.6 128.877H96C94.7269 128.877 93.506 129.383 92.6058 130.283C91.7057 131.183 91.2 132.404 91.2 133.677V143.277C91.2 144.55 91.7057 145.771 92.6058 146.672C93.506 147.572 94.7269 148.077 96 148.077ZM96 133.677H105.6V143.277H96V133.677Z" fill="#002C22"/>
<path d="M120 148.077H129.6C130.873 148.077 132.094 147.572 132.994 146.672C133.894 145.771 134.4 144.55 134.4 143.277V133.677C134.4 132.404 133.894 131.183 132.994 130.283C132.094 129.383 130.873 128.877 129.6 128.877H120C118.727 128.877 117.506 129.383 116.606 130.283C115.706 131.183 115.2 132.404 115.2 133.677V143.277C115.2 144.55 115.706 145.771 116.606 146.672C117.506 147.572 118.727 148.077 120 148.077ZM120 133.677H129.6V143.277H120V133.677Z" fill="#3FE3CA"/>
<path d="M144 148.077H153.6C154.873 148.077 156.094 147.572 156.994 146.672C157.894 145.771 158.4 144.55 158.4 143.277V133.677C158.4 132.404 157.894 131.183 156.994 130.283C156.094 129.383 154.873 128.877 153.6 128.877H144C142.727 128.877 141.506 129.383 140.606 130.283C139.706 131.183 139.2 132.404 139.2 133.677V143.277C139.2 144.55 139.706 145.771 140.606 146.672C141.506 147.572 142.727 148.077 144 148.077ZM144 133.677H153.6V143.277H144V133.677Z" fill="#002C22"/>
<path d="M48 172.077H57.6C58.873 172.077 60.0939 171.572 60.9941 170.672C61.8942 169.771 62.4 168.55 62.4 167.277V157.677C62.4 156.404 61.8942 155.184 60.9941 154.283C60.0939 153.383 58.873 152.877 57.6 152.877H48C46.7269 152.877 45.506 153.383 44.6058 154.283C43.7057 155.184 43.2 156.404 43.2 157.677V167.277C43.2 168.55 43.7057 169.771 44.6058 170.672C45.506 171.572 46.7269 172.077 48 172.077ZM48 157.677H57.6V167.277H48V157.677Z" fill="#3FE3CA"/>
<path d="M72 172.077H81.6C82.873 172.077 84.0939 171.572 84.9941 170.672C85.8942 169.771 86.4 168.55 86.4 167.277V157.677C86.4 156.404 85.8942 155.184 84.9941 154.283C84.0939 153.383 82.873 152.877 81.6 152.877H72C70.7269 152.877 69.506 153.383 68.6058 154.283C67.7057 155.184 67.2 156.404 67.2 157.677V167.277C67.2 168.55 67.7057 169.771 68.6058 170.672C69.506 171.572 70.7269 172.077 72 172.077ZM72 157.677H81.6V167.277H72V157.677Z" fill="#002C22"/>
<path d="M96 172.077H105.6C106.873 172.077 108.094 171.572 108.994 170.672C109.894 169.771 110.4 168.55 110.4 167.277V157.677C110.4 156.404 109.894 155.184 108.994 154.283C108.094 153.383 106.873 152.877 105.6 152.877H96C94.7269 152.877 93.506 153.383 92.6058 154.283C91.7057 155.184 91.2 156.404 91.2 157.677V167.277C91.2 168.55 91.7057 169.771 92.6058 170.672C93.506 171.572 94.7269 172.077 96 172.077ZM96 157.677H105.6V167.277H96V157.677Z" fill="#3FE3CA"/>
<path d="M120 172.077H129.6C130.873 172.077 132.094 171.572 132.994 170.672C133.894 169.771 134.4 168.55 134.4 167.277V157.677C134.4 156.404 133.894 155.184 132.994 154.283C132.094 153.383 130.873 152.877 129.6 152.877H120C118.727 152.877 117.506 153.383 116.606 154.283C115.706 155.184 115.2 156.404 115.2 157.677V167.277C115.2 168.55 115.706 169.771 116.606 170.672C117.506 171.572 118.727 172.077 120 172.077ZM120 157.677H129.6V167.277H120V157.677Z" fill="#002C22"/>
<path d="M180.865 176.877H176.305C177.153 175.42 177.6 173.763 177.6 172.077V46.0771C177.6 43.531 176.589 41.0892 174.788 39.2889C172.988 37.4885 170.546 36.4771 168 36.4771H157.2V30.4771C157.2 29.8406 156.947 29.2301 156.497 28.78C156.047 28.3299 155.437 28.0771 154.8 28.0771C154.163 28.0771 153.553 28.3299 153.103 28.78C152.653 29.2301 152.4 29.8406 152.4 30.4771V49.6771C152.4 50.6319 152.021 51.5475 151.346 52.2227C150.67 52.8978 149.755 53.2771 148.8 53.2771C147.845 53.2771 146.93 52.8978 146.254 52.2227C145.579 51.5475 145.2 50.6319 145.2 49.6771V30.4771C145.2 29.8406 144.947 29.2301 144.497 28.78C144.047 28.3299 143.437 28.0771 142.8 28.0771C142.164 28.0771 141.553 28.3299 141.103 28.78C140.653 29.2301 140.4 29.8406 140.4 30.4771V36.4771H109.2V30.4771C109.2 29.8406 108.947 29.2301 108.497 28.78C108.047 28.3299 107.437 28.0771 106.8 28.0771C106.163 28.0771 105.553 28.3299 105.103 28.78C104.653 29.2301 104.4 29.8406 104.4 30.4771V49.6771C104.4 50.6319 104.021 51.5475 103.346 52.2227C102.67 52.8978 101.755 53.2771 100.8 53.2771C99.8452 53.2771 98.9296 52.8978 98.2544 52.2227C97.5793 51.5475 97.2 50.6319 97.2 49.6771V30.4771C97.2 29.8406 96.9472 29.2301 96.4971 28.78C96.047 28.3299 95.4365 28.0771 94.8 28.0771C94.1635 28.0771 93.5531 28.3299 93.103 28.78C92.6529 29.2301 92.4 29.8406 92.4 30.4771V36.4771H61.2V30.4771C61.2 29.8406 60.9472 29.2301 60.4971 28.78C60.047 28.3299 59.4365 28.0771 58.8 28.0771C58.1635 28.0771 57.553 28.3299 57.103 28.78C56.6529 29.2301 56.4 29.8406 56.4 30.4771V49.6771C56.4 50.6319 56.0207 51.5475 55.3456 52.2227C54.6705 52.8978 53.7548 53.2771 52.8 53.2771C51.8452 53.2771 50.9296 52.8978 50.2544 52.2227C49.5793 51.5475 49.2 50.6319 49.2 49.6771V30.4771C49.2 29.8406 48.9472 29.2301 48.4971 28.78C48.047 28.3299 47.4365 28.0771 46.8 28.0771C46.1635 28.0771 45.553 28.3299 45.103 28.78C44.6529 29.2301 44.4 29.8406 44.4 30.4771V36.4771H33.6C31.0539 36.4771 28.6121 37.4885 26.8118 39.2889C25.0114 41.0892 24 43.531 24 46.0771V172.077C24.0015 173.765 24.4521 175.421 25.3056 176.877H20.7336C20.3922 176.832 20.0452 176.861 19.7157 176.961C19.3863 177.062 19.082 177.231 18.8233 177.458C18.5645 177.685 18.3572 177.965 18.2151 178.279C18.0731 178.592 17.9996 178.933 17.9996 179.277C17.9996 179.621 18.0731 179.962 18.2151 180.275C18.3572 180.589 18.5645 180.869 18.8233 181.096C19.082 181.323 19.3863 181.493 19.7157 181.593C20.0452 181.693 20.3922 181.722 20.7336 181.677H180.865C181.207 181.722 181.554 181.693 181.883 181.593C182.213 181.493 182.517 181.323 182.776 181.096C183.034 180.869 183.242 180.589 183.384 180.275C183.526 179.962 183.599 179.621 183.599 179.277C183.599 178.933 183.526 178.592 183.384 178.279C183.242 177.965 183.034 177.685 182.776 177.458C182.517 177.231 182.213 177.062 181.883 176.961C181.554 176.861 181.207 176.832 180.865 176.877ZM141.649 54.0607C142.397 55.287 143.447 56.3004 144.7 57.0036C145.952 57.7068 147.364 58.0761 148.801 58.0761C150.237 58.0761 151.649 57.7068 152.901 57.0036C154.154 56.3004 155.204 55.287 155.952 54.0607C155.97 54.2659 156 54.4687 156 54.6775C156 56.5871 155.241 58.4184 153.891 59.7687C152.541 61.1189 150.71 61.8775 148.8 61.8775C146.89 61.8775 145.059 61.1189 143.709 59.7687C142.359 58.4184 141.6 56.5871 141.6 54.6775C141.6 54.4675 141.631 54.2659 141.649 54.0607ZM93.6492 54.0607C94.397 55.287 95.4475 56.3004 96.6998 57.0036C97.9522 57.7068 99.3644 58.0761 100.801 58.0761C102.237 58.0761 103.649 57.7068 104.901 57.0036C106.154 56.3004 107.204 55.287 107.952 54.0607C107.97 54.2659 108 54.4687 108 54.6775C108 56.5871 107.241 58.4184 105.891 59.7687C104.541 61.1189 102.71 61.8775 100.8 61.8775C98.8905 61.8775 97.0591 61.1189 95.7089 59.7687C94.3586 58.4184 93.6 56.5871 93.6 54.6775C93.6 54.4675 93.6312 54.2659 93.6492 54.0607ZM45.6492 54.0607C46.397 55.287 47.4475 56.3004 48.6998 57.0036C49.9522 57.7068 51.3643 58.0761 52.8006 58.0761C54.2369 58.0761 55.649 57.7068 56.9014 57.0036C58.1538 56.3004 59.2043 55.287 59.952 54.0607C59.97 54.2659 60 54.4687 60 54.6775C60 56.5871 59.2415 58.4184 57.8912 59.7687C56.5409 61.1189 54.7096 61.8775 52.8 61.8775C50.8905 61.8775 49.0591 61.1189 47.7088 59.7687C46.3586 58.4184 45.6 56.5871 45.6 54.6775C45.6 54.4675 45.6312 54.2659 45.6492 54.0607ZM28.8 46.0771C28.8016 44.8045 29.3078 43.5846 30.2077 42.6847C31.1075 41.7849 32.3275 41.2787 33.6 41.2771H44.4V46.1347C42.6978 47.8032 41.531 49.9409 41.0485 52.2751C40.5659 54.6094 40.7895 57.0344 41.6906 59.2411C42.5918 61.4478 44.1297 63.3361 46.1083 64.6653C48.0868 65.9946 50.4164 66.7044 52.8 66.7044C55.1836 66.7044 57.5132 65.9946 59.4918 64.6653C61.4704 63.3361 63.0083 61.4478 63.9094 59.2411C64.8105 57.0344 65.0341 54.6094 64.5516 52.2751C64.069 49.9409 62.9022 47.8032 61.2 46.1347V41.2771H92.4V46.1347C90.6978 47.8032 89.531 49.9409 89.0485 52.2751C88.5659 54.6094 88.7895 57.0344 89.6906 59.2411C90.5918 61.4478 92.1297 63.3361 94.1083 64.6653C96.0868 65.9946 98.4164 66.7044 100.8 66.7044C103.184 66.7044 105.513 65.9946 107.492 64.6653C109.47 63.3361 111.008 61.4478 111.909 59.2411C112.811 57.0344 113.034 54.6094 112.552 52.2751C112.069 49.9409 110.902 47.8032 109.2 46.1347V41.2771H140.4V46.1347C138.698 47.8032 137.531 49.9409 137.048 52.2751C136.566 54.6094 136.79 57.0344 137.691 59.2411C138.592 61.4478 140.13 63.3361 142.108 64.6653C144.087 65.9946 146.416 66.7044 148.8 66.7044C151.184 66.7044 153.513 65.9946 155.492 64.6653C157.47 63.3361 159.008 61.4478 159.909 59.2411C160.811 57.0344 161.034 54.6094 160.552 52.2751C160.069 49.9409 158.902 47.8032 157.2 46.1347V41.2771H168C169.273 41.2787 170.493 41.7849 171.392 42.6847C172.292 43.5846 172.798 44.8045 172.8 46.0771V71.2771H28.8V46.0771ZM33.6 176.877C32.3275 176.876 31.1075 176.369 30.2077 175.469C29.3078 174.57 28.8016 173.35 28.8 172.077V76.0771H172.8V172.077C172.798 173.35 172.292 174.57 171.392 175.469C170.493 176.369 169.273 176.876 168 176.877H33.6ZM196.8 12.6235C197.512 12.6235 198.208 12.4124 198.8 12.0168C199.392 11.6212 199.854 11.059 200.126 10.4011C200.398 9.74333 200.47 9.01949 200.331 8.32116C200.192 7.62283 199.849 6.98137 199.346 6.4779C198.842 5.97443 198.201 5.63157 197.502 5.49266C196.804 5.35375 196.08 5.42504 195.422 5.69752C194.765 5.97 194.202 6.43142 193.807 7.02343C193.411 7.61545 193.2 8.31147 193.2 9.02349C193.201 9.97797 193.581 10.8931 194.255 11.568C194.93 12.2429 195.846 12.6225 196.8 12.6235ZM196.8 7.22349C197.156 7.22349 197.504 7.32905 197.8 7.52684C198.096 7.72463 198.327 8.00575 198.463 8.33466C198.599 8.66356 198.635 9.02548 198.565 9.37465C198.496 9.72381 198.325 10.0445 198.073 10.2963C197.821 10.548 197.5 10.7194 197.151 10.7889C196.802 10.8584 196.44 10.8227 196.111 10.6865C195.782 10.5502 195.501 10.3195 195.303 10.0235C195.106 9.72751 195 9.37949 195 9.02349C195 8.54619 195.19 8.08854 195.528 7.75105C195.865 7.41355 196.323 7.2238 196.8 7.22349ZM194.4 67.6771C193.925 67.6771 193.461 67.8179 193.067 68.0816C192.672 68.3453 192.364 68.7201 192.183 69.1587C192.001 69.5972 191.954 70.0798 192.046 70.5453C192.139 71.0109 192.367 71.4385 192.703 71.7742C193.039 72.1098 193.466 72.3384 193.932 72.431C194.397 72.5236 194.88 72.4761 195.318 72.2944C195.757 72.1128 196.132 71.8051 196.396 71.4105C196.659 71.0158 196.8 70.5518 196.8 70.0771C196.799 69.4408 196.546 68.8307 196.096 68.3807C195.646 67.9308 195.036 67.6777 194.4 67.6771ZM194.4 71.2771C194.163 71.2771 193.931 71.2067 193.733 71.0749C193.536 70.943 193.382 70.7556 193.291 70.5363C193.201 70.317 193.177 70.0758 193.223 69.843C193.269 69.6102 193.384 69.3964 193.551 69.2286C193.719 69.0607 193.933 68.9465 194.166 68.9002C194.399 68.8539 194.64 68.8776 194.859 68.9684C195.079 69.0593 195.266 69.2131 195.398 69.4104C195.53 69.6078 195.6 69.8398 195.6 70.0771C195.6 70.3953 195.473 70.7003 195.248 70.9253C195.023 71.1503 194.718 71.2768 194.4 71.2771ZM74.4 4.82349C73.9253 4.82349 73.4613 4.96424 73.0667 5.22796C72.672 5.49167 72.3644 5.8665 72.1827 6.30505C72.0011 6.74359 71.9535 7.22615 72.0461 7.6917C72.1387 8.15726 72.3673 8.5849 72.703 8.92054C73.0386 9.25619 73.4662 9.48477 73.9318 9.57737C74.3974 9.66998 74.8799 9.62245 75.3185 9.4408C75.757 9.25915 76.1318 8.95153 76.3955 8.55686C76.6593 8.16218 76.8 7.69816 76.8 7.22349C76.7994 6.58716 76.5463 5.97708 76.0964 5.52713C75.6464 5.07718 75.0363 4.82412 74.4 4.82349ZM74.4 8.42349C74.1627 8.42349 73.9307 8.35311 73.7333 8.22125C73.536 8.08939 73.3822 7.90198 73.2914 7.68271C73.2005 7.46344 73.1768 7.22216 73.2231 6.98938C73.2694 6.7566 73.3837 6.54278 73.5515 6.37496C73.7193 6.20714 73.9331 6.09285 74.1659 6.04654C74.3987 6.00024 74.64 6.02401 74.8592 6.11483C75.0785 6.20566 75.2659 6.35946 75.3978 6.5568C75.5296 6.75414 75.6 6.98615 75.6 7.22349C75.5997 7.54165 75.4732 7.84669 75.2482 8.07166C75.0232 8.29664 74.7182 8.42317 74.4 8.42349ZM166.4 19.6771C165.926 19.6771 165.462 19.8178 165.067 20.0816C164.672 20.3453 164.365 20.7201 164.183 21.1586C164.001 21.5972 163.954 22.0798 164.047 22.5453C164.139 23.0109 164.368 23.4385 164.703 23.7741C165.039 24.1098 165.467 24.3384 165.932 24.431C166.398 24.5236 166.88 24.4761 167.319 24.2944C167.757 24.1128 168.132 23.8051 168.396 23.4105C168.66 23.0158 168.8 22.5518 168.8 22.0771C168.8 21.4408 168.547 20.8307 168.097 20.3807C167.647 19.9308 167.037 19.6777 166.4 19.6771ZM166.4 23.2771C166.163 23.2771 165.931 23.2067 165.734 23.0749C165.536 22.943 165.383 22.7556 165.292 22.5363C165.201 22.317 165.177 22.0758 165.223 21.843C165.27 21.6102 165.384 21.3964 165.552 21.2286C165.72 21.0607 165.934 20.9464 166.166 20.9001C166.399 20.8538 166.64 20.8776 166.86 20.9684C167.079 21.0593 167.266 21.2131 167.398 21.4104C167.53 21.6077 167.6 21.8398 167.6 22.0771C167.6 22.3953 167.474 22.7003 167.249 22.9253C167.024 23.1502 166.719 23.2768 166.4 23.2771ZM39.2004 20.8771C39.2004 20.4024 39.0597 19.9384 38.7959 19.5437C38.5322 19.149 38.1574 18.8414 37.7189 18.6598C37.2803 18.4781 36.7978 18.4306 36.3322 18.5232C35.8666 18.6158 35.439 18.8444 35.1034 19.18C34.7677 19.5157 34.5391 19.9433 34.4465 20.4089C34.3539 20.8744 34.4015 21.357 34.5831 21.7955C34.7648 22.2341 35.0724 22.6089 35.4671 22.8726C35.8617 23.1363 36.3257 23.2771 36.8004 23.2771C37.4367 23.2765 38.0468 23.0234 38.4968 22.5734C38.9467 22.1235 39.1998 21.5134 39.2004 20.8771ZM35.6004 20.8771C35.6004 20.6398 35.6708 20.4077 35.8027 20.2104C35.9345 20.0131 36.1219 19.8593 36.3412 19.7684C36.5605 19.6776 36.8018 19.6538 37.0345 19.7001C37.2673 19.7464 37.4811 19.8607 37.6489 20.0286C37.8168 20.1964 37.9311 20.4102 37.9774 20.643C38.0237 20.8758 37.9999 21.117 37.9091 21.3363C37.8183 21.5556 37.6644 21.743 37.4671 21.8749C37.2698 22.0067 37.0378 22.0771 36.8004 22.0771C36.4823 22.0768 36.1772 21.9502 35.9522 21.7253C35.7273 21.5003 35.6007 21.1953 35.6004 20.8771Z" fill="#002C22"/>
</svg>
