<svg width="85" height="84" viewBox="0 0 85 84" fill="none" xmlns="http://www.w3.org/2000/svg">
<path fill-rule="evenodd" clip-rule="evenodd" d="M42.25 10L7.25 38.1905V84H31.75V55.8095H52.75V84H77.25V38.1905L42.25 10ZM74.25 80H56.75V51.7939H28.75V80H11.25V39.3855L42.75 14L74.25 39.3855V80Z" fill="#0FDCBC"/>
<path fill-rule="evenodd" clip-rule="evenodd" d="M42.25 0L21.25 16.7683L7.25 27.9469L0.25 33.5142L2.76781 35.9998L42.25 4.47372L81.7322 36L84.25 33.5142L42.25 0Z" fill="#0FDCBC"/>
<path fill-rule="evenodd" clip-rule="evenodd" d="M43.9342 27.5789V32.4737V34.1053H45.6184H50.6711V37.3684H45.6184H43.9342V39V43.8947H40.5658V39V37.3684H38.8816H33.8289V34.1053H38.8816H40.5658V32.4737V27.5789H43.9342ZM45.5833 26H38.9167V32.4912H32.25V38.9825H38.9167V45.4737H45.5833V38.9825H52.25V32.4912H45.5833V26Z" fill="#0FDCBC"/>
</svg>
