<svg width="20" height="23" viewBox="0 0 20 23" fill="none" xmlns="http://www.w3.org/2000/svg">
<path d="M16.0225 3.12356C19.4592 6.48818 19.4592 11.9433 16.0225 15.3079L9.8 21.4001L3.57746 15.3079C0.140846 11.9433 0.140846 6.48818 3.57746 3.12356C7.01407 -0.241057 12.5859 -0.241057 16.0225 3.12356Z" fill="#00EBC7"/>
<path d="M13.32 8.68899C13.32 10.6036 11.744 12.1557 9.8 12.1557C7.85596 12.1557 6.28 10.6036 6.28 8.68899C6.28 6.7744 7.85596 5.22232 9.8 5.22232C11.744 5.22232 13.32 6.7744 13.32 8.68899Z" fill="#00EBC7"/>
<path d="M16.0225 3.12356C19.4592 6.48818 19.4592 11.9433 16.0225 15.3079L9.8 21.4001L3.57746 15.3079C0.140846 11.9433 0.140846 6.48818 3.57746 3.12356C7.01407 -0.241057 12.5859 -0.241057 16.0225 3.12356Z" stroke="white" stroke-width="1.2"/>
<path d="M13.32 8.68899C13.32 10.6036 11.744 12.1557 9.8 12.1557C7.85596 12.1557 6.28 10.6036 6.28 8.68899C6.28 6.7744 7.85596 5.22232 9.8 5.22232C11.744 5.22232 13.32 6.7744 13.32 8.68899Z" stroke="white" stroke-width="1.2"/>
</svg>
