<svg width="230" height="182" viewBox="0 0 230 182" fill="none" xmlns="http://www.w3.org/2000/svg">
<rect x="2.4" y="2.4" width="48.96" height="31.68" rx="9.12" stroke="#002C22" stroke-width="4.8"/>
<line x1="63.8447" y1="4.09479" x2="174.245" y2="4.31515" stroke="#002C22" stroke-width="4.8" stroke-linecap="round"/>
<line x1="63.8447" y1="27.3646" x2="174.245" y2="27.5849" stroke="#002C22" stroke-width="4.8" stroke-linecap="round"/>
<rect x="2.40012" y="54.2398" width="48.96" height="31.68" rx="9.12" stroke="#002C22" stroke-width="4.8"/>
<line x1="63.8482" y1="56.8917" x2="130.088" y2="57.112" stroke="#002C22" stroke-width="4.8" stroke-linecap="round"/>
<line x1="63.8306" y1="78.4667" x2="118.55" y2="78.2495" stroke="#002C22" stroke-width="4.8" stroke-linecap="round"/>
<rect x="2.40012" y="106.08" width="48.96" height="31.68" rx="9.12" stroke="#002C22" stroke-width="4.8"/>
<line x1="63.8402" y1="114.72" x2="114.72" y2="114.72" stroke="#002C22" stroke-width="4.8" stroke-linecap="round"/>
<line x1="63.8402" y1="137.76" x2="130.08" y2="137.76" stroke="#002C22" stroke-width="4.8" stroke-linecap="round"/>
<path d="M199.271 128.229L198.037 126.171L193.92 128.64L195.155 130.698L197.213 129.464L199.271 128.229ZM224.946 180.366C225.628 181.503 227.102 181.872 228.239 181.19C229.375 180.508 229.744 179.034 229.062 177.897L227.004 179.132L224.946 180.366ZM197.213 129.464L195.155 130.698L224.946 180.366L227.004 179.132L229.062 177.897L199.271 128.229L197.213 129.464Z" fill="#0FDCBC" fill-opacity="0.8"/>
<circle cx="176.64" cy="88.3199" r="41.76" stroke="#0FDCBC" stroke-opacity="0.8" stroke-width="4.8"/>
</svg>
