<svg width="198" height="212" viewBox="0 0 198 212" fill="none" xmlns="http://www.w3.org/2000/svg">
<path d="M78.0004 95.9855H87.6004C88.8734 95.9855 90.0943 95.4798 90.9945 94.5796C91.8947 93.6794 92.4004 92.4585 92.4004 91.1855V81.5855C92.4004 80.3125 91.8947 79.0916 90.9945 78.1914C90.0943 77.2912 88.8734 76.7855 87.6004 76.7855H78.0004C76.7273 76.7855 75.5064 77.2912 74.6063 78.1914C73.7061 79.0916 73.2004 80.3125 73.2004 81.5855V91.1855C73.2004 92.4585 73.7061 93.6794 74.6063 94.5796C75.5064 95.4798 76.7273 95.9855 78.0004 95.9855ZM78.0004 81.5855H87.6004V91.1855H78.0004V81.5855Z" fill="#002C22"/>
<path d="M102 95.9855H111.6C112.873 95.9855 114.094 95.4798 114.994 94.5796C115.895 93.6794 116.4 92.4585 116.4 91.1855V81.5855C116.4 80.3125 115.895 79.0916 114.994 78.1914C114.094 77.2912 112.873 76.7855 111.6 76.7855H102C100.727 76.7855 99.5064 77.2912 98.6063 78.1914C97.7061 79.0916 97.2004 80.3125 97.2004 81.5855V91.1855C97.2004 92.4585 97.7061 93.6794 98.6063 94.5796C99.5064 95.4798 100.727 95.9855 102 95.9855ZM102 81.5855H111.6V91.1855H102V81.5855Z" fill="#002C22"/>
<path d="M126 95.9855H135.6C136.873 95.9855 138.094 95.4798 138.994 94.5796C139.895 93.6794 140.4 92.4585 140.4 91.1855V81.5855C140.4 80.3125 139.895 79.0916 138.994 78.1914C138.094 77.2912 136.873 76.7855 135.6 76.7855H126C124.727 76.7855 123.506 77.2912 122.606 78.1914C121.706 79.0916 121.2 80.3125 121.2 81.5855V91.1855C121.2 92.4585 121.706 93.6794 122.606 94.5796C123.506 95.4798 124.727 95.9855 126 95.9855ZM126 81.5855H135.6V91.1855H126V81.5855Z" fill="#002C22"/>
<path d="M30.0004 119.985H39.6004C40.8734 119.985 42.0943 119.48 42.9945 118.58C43.8947 117.679 44.4004 116.459 44.4004 115.186V105.585C44.4004 104.312 43.8947 103.092 42.9945 102.191C42.0943 101.291 40.8734 100.785 39.6004 100.785H30.0004C28.7273 100.785 27.5064 101.291 26.6063 102.191C25.7061 103.092 25.2004 104.312 25.2004 105.585V115.186C25.2004 116.459 25.7061 117.679 26.6063 118.58C27.5064 119.48 28.7273 119.985 30.0004 119.985ZM30.0004 105.585H39.6004V115.186H30.0004V105.585Z" fill="#002C22"/>
<path d="M54.0004 119.985H63.6004C64.8734 119.985 66.0943 119.48 66.9945 118.58C67.8947 117.679 68.4004 116.459 68.4004 115.186V105.585C68.4004 104.312 67.8947 103.092 66.9945 102.191C66.0943 101.291 64.8734 100.785 63.6004 100.785H54.0004C52.7273 100.785 51.5064 101.291 50.6063 102.191C49.7061 103.092 49.2004 104.312 49.2004 105.585V115.186C49.2004 116.459 49.7061 117.679 50.6063 118.58C51.5064 119.48 52.7273 119.985 54.0004 119.985ZM54.0004 105.585H63.6004V115.186H54.0004V105.585Z" fill="#002C22"/>
<path d="M78.0004 119.985H87.6004C88.8734 119.985 90.0943 119.48 90.9945 118.58C91.8947 117.679 92.4004 116.459 92.4004 115.186V105.585C92.4004 104.312 91.8947 103.092 90.9945 102.191C90.0943 101.291 88.8734 100.785 87.6004 100.785H78.0004C76.7273 100.785 75.5064 101.291 74.6063 102.191C73.7061 103.092 73.2004 104.312 73.2004 105.585V115.186C73.2004 116.459 73.7061 117.679 74.6063 118.58C75.5064 119.48 76.7273 119.985 78.0004 119.985ZM78.0004 105.585H87.6004V115.186H78.0004V105.585Z" fill="#3FE3CA"/>
<path d="M102 119.985H111.6C112.873 119.985 114.094 119.48 114.994 118.58C115.895 117.679 116.4 116.459 116.4 115.186V105.585C116.4 104.312 115.895 103.092 114.994 102.191C114.094 101.291 112.873 100.785 111.6 100.785H102C100.727 100.785 99.5064 101.291 98.6063 102.191C97.7061 103.092 97.2004 104.312 97.2004 105.585V115.186C97.2004 116.459 97.7061 117.679 98.6063 118.58C99.5064 119.48 100.727 119.985 102 119.985ZM102 105.585H111.6V115.186H102V105.585Z" fill="#002C22"/>
<path d="M126 119.985H135.6C136.873 119.985 138.094 119.48 138.994 118.58C139.895 117.679 140.4 116.459 140.4 115.186V105.585C140.4 104.312 139.895 103.092 138.994 102.191C138.094 101.291 136.873 100.785 135.6 100.785H126C124.727 100.785 123.506 101.291 122.606 102.191C121.706 103.092 121.2 104.312 121.2 105.585V115.186C121.2 116.459 121.706 117.679 122.606 118.58C123.506 119.48 124.727 119.985 126 119.985ZM126 105.585H135.6V115.186H126V105.585Z" fill="#002C22"/>
<path d="M30.0004 143.986H39.6004C40.8734 143.986 42.0943 143.48 42.9945 142.58C43.8947 141.679 44.4004 140.459 44.4004 139.186V129.586C44.4004 128.312 43.8947 127.092 42.9945 126.191C42.0943 125.291 40.8734 124.786 39.6004 124.786H30.0004C28.7273 124.786 27.5064 125.291 26.6063 126.191C25.7061 127.092 25.2004 128.312 25.2004 129.586V139.186C25.2004 140.459 25.7061 141.679 26.6063 142.58C27.5064 143.48 28.7273 143.986 30.0004 143.986ZM30.0004 129.586H39.6004V139.186H30.0004V129.586Z" fill="#002C22"/>
<path d="M54.0004 143.986H63.6004C64.8734 143.986 66.0943 143.48 66.9945 142.58C67.8947 141.679 68.4004 140.459 68.4004 139.186V129.586C68.4004 128.312 67.8947 127.092 66.9945 126.191C66.0943 125.291 64.8734 124.786 63.6004 124.786H54.0004C52.7273 124.786 51.5064 125.291 50.6063 126.191C49.7061 127.092 49.2004 128.312 49.2004 129.586V139.186C49.2004 140.459 49.7061 141.679 50.6063 142.58C51.5064 143.48 52.7273 143.986 54.0004 143.986ZM54.0004 129.586H63.6004V139.186H54.0004V129.586Z" fill="#002C22"/>
<path d="M78.0004 143.986H87.6004C88.8734 143.986 90.0943 143.48 90.9945 142.58C91.8947 141.679 92.4004 140.459 92.4004 139.186V129.586C92.4004 128.312 91.8947 127.092 90.9945 126.191C90.0943 125.291 88.8734 124.786 87.6004 124.786H78.0004C76.7273 124.786 75.5064 125.291 74.6063 126.191C73.7061 127.092 73.2004 128.312 73.2004 129.586V139.186C73.2004 140.459 73.7061 141.679 74.6063 142.58C75.5064 143.48 76.7273 143.986 78.0004 143.986ZM78.0004 129.586H87.6004V139.186H78.0004V129.586Z" fill="#002C22"/>
<path d="M102 143.986H111.6C112.873 143.986 114.094 143.48 114.994 142.58C115.895 141.679 116.4 140.459 116.4 139.186V129.586C116.4 128.312 115.895 127.092 114.994 126.191C114.094 125.291 112.873 124.786 111.6 124.786H102C100.727 124.786 99.5064 125.291 98.6063 126.191C97.7061 127.092 97.2004 128.312 97.2004 129.586V139.186C97.2004 140.459 97.7061 141.679 98.6063 142.58C99.5064 143.48 100.727 143.986 102 143.986ZM102 129.586H111.6V139.186H102V129.586Z" fill="#002C22"/>
<path d="M126 143.986H135.6C136.873 143.986 138.094 143.48 138.994 142.58C139.895 141.679 140.4 140.459 140.4 139.186V129.586C140.4 128.312 139.895 127.092 138.994 126.191C138.094 125.291 136.873 124.786 135.6 124.786H126C124.727 124.786 123.506 125.291 122.606 126.191C121.706 127.092 121.2 128.312 121.2 129.586V139.186C121.2 140.459 121.706 141.679 122.606 142.58C123.506 143.48 124.727 143.986 126 143.986ZM126 129.586H135.6V139.186H126V129.586Z" fill="#002C22"/>
<path d="M30.0004 167.985H39.6004C40.8734 167.985 42.0943 167.48 42.9945 166.58C43.8947 165.679 44.4004 164.459 44.4004 163.186V153.585C44.4004 152.312 43.8947 151.092 42.9945 150.191C42.0943 149.291 40.8734 148.786 39.6004 148.786H30.0004C28.7273 148.786 27.5064 149.291 26.6063 150.191C25.7061 151.092 25.2004 152.312 25.2004 153.585V163.186C25.2004 164.459 25.7061 165.679 26.6063 166.58C27.5064 167.48 28.7273 167.985 30.0004 167.985ZM30.0004 153.585H39.6004V163.186H30.0004V153.585Z" fill="#002C22"/>
<path d="M54.0004 167.985H63.6004C64.8734 167.985 66.0943 167.48 66.9945 166.58C67.8947 165.679 68.4004 164.459 68.4004 163.186V153.585C68.4004 152.312 67.8947 151.092 66.9945 150.191C66.0943 149.291 64.8734 148.786 63.6004 148.786H54.0004C52.7273 148.786 51.5064 149.291 50.6063 150.191C49.7061 151.092 49.2004 152.312 49.2004 153.585V163.186C49.2004 164.459 49.7061 165.679 50.6063 166.58C51.5064 167.48 52.7273 167.985 54.0004 167.985ZM54.0004 153.585H63.6004V163.186H54.0004V153.585Z" fill="#002C22"/>
<path d="M78.0004 167.985H87.6004C88.8734 167.985 90.0943 167.48 90.9945 166.58C91.8947 165.679 92.4004 164.459 92.4004 163.186V153.585C92.4004 152.312 91.8947 151.092 90.9945 150.191C90.0943 149.291 88.8734 148.786 87.6004 148.786H78.0004C76.7273 148.786 75.5064 149.291 74.6063 150.191C73.7061 151.092 73.2004 152.312 73.2004 153.585V163.186C73.2004 164.459 73.7061 165.679 74.6063 166.58C75.5064 167.48 76.7273 167.985 78.0004 167.985ZM78.0004 153.585H87.6004V163.186H78.0004V153.585Z" fill="#002C22"/>
<path d="M102 167.985H111.6C112.873 167.985 114.094 167.48 114.994 166.58C115.895 165.679 116.4 164.459 116.4 163.186V153.585C116.4 152.312 115.895 151.092 114.994 150.191C114.094 149.291 112.873 148.786 111.6 148.786H102C100.727 148.786 99.5064 149.291 98.6063 150.191C97.7061 151.092 97.2004 152.312 97.2004 153.585V163.186C97.2004 164.459 97.7061 165.679 98.6063 166.58C99.5064 167.48 100.727 167.985 102 167.985ZM102 153.585H111.6V163.186H102V153.585Z" fill="#002C22"/>
<path d="M162.866 172.785H158.306C159.154 171.328 159.6 169.672 159.6 167.985V41.9853C159.6 39.4392 158.589 36.9974 156.789 35.1971C154.988 33.3967 152.546 32.3853 150 32.3853H139.2V26.3853C139.2 25.7488 138.948 25.1383 138.497 24.6882C138.047 24.2381 137.437 23.9853 136.8 23.9853C136.164 23.9853 135.553 24.2381 135.103 24.6882C134.653 25.1383 134.4 25.7488 134.4 26.3853V45.5853C134.4 46.5401 134.021 47.4557 133.346 48.1309C132.671 48.806 131.755 49.1853 130.8 49.1853C129.846 49.1853 128.93 48.806 128.255 48.1309C127.58 47.4557 127.2 46.5401 127.2 45.5853V26.3853C127.2 25.7488 126.948 25.1383 126.497 24.6882C126.047 24.2381 125.437 23.9853 124.8 23.9853C124.164 23.9853 123.553 24.2381 123.103 24.6882C122.653 25.1383 122.4 25.7488 122.4 26.3853V32.3853H91.2004V26.3853C91.2004 25.7488 90.9475 25.1383 90.4974 24.6882C90.0474 24.2381 89.4369 23.9853 88.8004 23.9853C88.1639 23.9853 87.5534 24.2381 87.1033 24.6882C86.6532 25.1383 86.4004 25.7488 86.4004 26.3853V45.5853C86.4004 46.5401 86.0211 47.4557 85.346 48.1309C84.6708 48.806 83.7552 49.1853 82.8004 49.1853C81.8456 49.1853 80.9299 48.806 80.2548 48.1309C79.5797 47.4557 79.2004 46.5401 79.2004 45.5853V26.3853C79.2004 25.7488 78.9475 25.1383 78.4974 24.6882C78.0474 24.2381 77.4369 23.9853 76.8004 23.9853C76.1639 23.9853 75.5534 24.2381 75.1033 24.6882C74.6532 25.1383 74.4004 25.7488 74.4004 26.3853V32.3853H43.2004V26.3853C43.2004 25.7488 42.9475 25.1383 42.4974 24.6882C42.0474 24.2381 41.4369 23.9853 40.8004 23.9853C40.1639 23.9853 39.5534 24.2381 39.1033 24.6882C38.6532 25.1383 38.4004 25.7488 38.4004 26.3853V45.5853C38.4004 46.5401 38.0211 47.4557 37.346 48.1309C36.6708 48.806 35.7552 49.1853 34.8004 49.1853C33.8456 49.1853 32.9299 48.806 32.2548 48.1309C31.5797 47.4557 31.2004 46.5401 31.2004 45.5853V26.3853C31.2004 25.7488 30.9475 25.1383 30.4974 24.6882C30.0474 24.2381 29.4369 23.9853 28.8004 23.9853C28.1639 23.9853 27.5534 24.2381 27.1033 24.6882C26.6532 25.1383 26.4004 25.7488 26.4004 26.3853V32.3853H15.6004C13.0543 32.3853 10.6125 33.3967 8.81216 35.1971C7.01181 36.9974 6.00039 39.4392 6.00039 41.9853V167.985C6.00184 169.673 6.45246 171.33 7.30598 172.785H2.73399C2.39255 172.741 2.04554 172.769 1.7161 172.87C1.38667 172.97 1.08241 173.139 0.823632 173.366C0.56486 173.593 0.357534 173.873 0.215501 174.187C0.0734691 174.501 0 174.841 0 175.185C0 175.53 0.0734691 175.87 0.215501 176.184C0.357534 176.497 0.56486 176.777 0.823632 177.004C1.08241 177.231 1.38667 177.401 1.7161 177.501C2.04554 177.601 2.39255 177.63 2.73399 177.585H162.866C163.207 177.63 163.554 177.601 163.883 177.501C164.213 177.401 164.517 177.231 164.776 177.004C165.035 176.777 165.242 176.497 165.384 176.184C165.526 175.87 165.6 175.53 165.6 175.185C165.6 174.841 165.526 174.501 165.384 174.187C165.242 173.873 165.035 173.593 164.776 173.366C164.517 173.139 164.213 172.97 163.883 172.87C163.554 172.769 163.207 172.741 162.866 172.785ZM123.65 49.9689C124.397 51.1952 125.448 52.2086 126.7 52.9118C127.953 53.615 129.365 53.9843 130.801 53.9843C132.237 53.9843 133.649 53.615 134.902 52.9118C136.154 52.2086 137.205 51.1952 137.952 49.9689C137.97 50.1741 138 50.3769 138 50.5857C138 52.4953 137.242 54.3266 135.892 55.6769C134.541 57.0271 132.71 57.7857 130.8 57.7857C128.891 57.7857 127.059 57.0271 125.709 55.6769C124.359 54.3266 123.6 52.4953 123.6 50.5857C123.6 50.3757 123.632 50.1741 123.65 49.9689ZM75.6496 49.9689C76.3973 51.1952 77.4478 52.2086 78.7002 52.9118C79.9526 53.615 81.3647 53.9843 82.801 53.9843C84.2373 53.9843 85.6494 53.615 86.9018 52.9118C88.1541 52.2086 89.2047 51.1952 89.9524 49.9689C89.9704 50.1741 90.0004 50.3769 90.0004 50.5857C90.0004 52.4953 89.2418 54.3266 87.8916 55.6769C86.5413 57.0271 84.7099 57.7857 82.8004 57.7857C80.8908 57.7857 79.0595 57.0271 77.7092 55.6769C76.359 54.3266 75.6004 52.4953 75.6004 50.5857C75.6004 50.3757 75.6316 50.1741 75.6496 49.9689ZM27.6496 49.9689C28.3973 51.1952 29.4478 52.2086 30.7002 52.9118C31.9526 53.615 33.3647 53.9843 34.801 53.9843C36.2373 53.9843 37.6494 53.615 38.9018 52.9118C40.1541 52.2086 41.2047 51.1952 41.9524 49.9689C41.9704 50.1741 42.0004 50.3769 42.0004 50.5857C42.0004 52.4953 41.2418 54.3266 39.8916 55.6769C38.5413 57.0271 36.7099 57.7857 34.8004 57.7857C32.8908 57.7857 31.0595 57.0271 29.7092 55.6769C28.359 54.3266 27.6004 52.4953 27.6004 50.5857C27.6004 50.3757 27.6316 50.1741 27.6496 49.9689ZM10.8004 41.9853C10.802 40.7127 11.3082 39.4928 12.208 38.5929C13.1079 37.6931 14.3278 37.1869 15.6004 37.1853H26.4004V42.0429C24.6982 43.7114 23.5314 45.8491 23.0489 48.1833C22.5663 50.5176 22.7899 52.9426 23.691 55.1493C24.5921 57.356 26.13 59.2443 28.1086 60.5736C30.0872 61.9028 32.4168 62.6126 34.8004 62.6126C37.184 62.6126 39.5136 61.9028 41.4922 60.5736C43.4707 59.2443 45.0086 57.356 45.9098 55.1493C46.8109 52.9426 47.0345 50.5176 46.5519 48.1833C46.0694 45.8491 44.9026 43.7114 43.2004 42.0429V37.1853H74.4004V42.0429C72.6982 43.7114 71.5314 45.8491 71.0489 48.1833C70.5663 50.5176 70.7899 52.9426 71.691 55.1493C72.5921 57.356 74.1301 59.2443 76.1086 60.5736C78.0872 61.9028 80.4168 62.6126 82.8004 62.6126C85.184 62.6126 87.5136 61.9028 89.4921 60.5736C91.4707 59.2443 93.0086 57.356 93.9098 55.1493C94.8109 52.9426 95.0345 50.5176 94.5519 48.1833C94.0694 45.8491 92.9026 43.7114 91.2004 42.0429V37.1853H122.4V42.0429C120.698 43.7114 119.531 45.8491 119.049 48.1833C118.566 50.5176 118.79 52.9426 119.691 55.1493C120.592 57.356 122.13 59.2443 124.109 60.5736C126.087 61.9028 128.417 62.6126 130.8 62.6126C133.184 62.6126 135.514 61.9028 137.492 60.5736C139.471 59.2443 141.009 57.356 141.91 55.1493C142.811 52.9426 143.034 50.5176 142.552 48.1833C142.069 45.8491 140.903 43.7114 139.2 42.0429V37.1853H150C151.273 37.1869 152.493 37.6931 153.393 38.5929C154.293 39.4928 154.799 40.7127 154.8 41.9853V67.1853H10.8004V41.9853ZM15.6004 172.785C14.3278 172.784 13.1079 172.277 12.208 171.378C11.3082 170.478 10.802 169.258 10.8004 167.985V71.9853H154.8V167.985C154.799 169.258 154.293 170.478 153.393 171.378C152.493 172.277 151.273 172.784 150 172.785H15.6004ZM178.8 8.53169C179.512 8.53169 180.208 8.32055 180.8 7.92498C181.392 7.52941 181.854 6.96716 182.126 6.30935C182.399 5.65154 182.47 4.9277 182.331 4.22936C182.192 3.53103 181.849 2.88957 181.346 2.38611C180.843 1.88264 180.201 1.53977 179.503 1.40086C178.804 1.26196 178.081 1.33325 177.423 1.60572C176.765 1.8782 176.203 2.33962 175.807 2.93164C175.412 3.52365 175.2 4.21968 175.2 4.93169C175.201 5.88618 175.581 6.8013 176.256 7.47622C176.931 8.15115 177.846 8.53074 178.8 8.53169ZM178.8 3.13169C179.156 3.13169 179.504 3.23726 179.8 3.43504C180.096 3.63283 180.327 3.91395 180.463 4.24286C180.6 4.57177 180.635 4.93369 180.566 5.28285C180.496 5.63202 180.325 5.95275 180.073 6.20448C179.821 6.45622 179.501 6.62765 179.152 6.6971C178.802 6.76656 178.44 6.73091 178.112 6.59467C177.783 6.45844 177.502 6.22773 177.304 5.93172C177.106 5.63571 177 5.2877 177 4.93169C177.001 4.4544 177.19 3.99675 177.528 3.65925C177.865 3.32175 178.323 3.13201 178.8 3.13169ZM176.4 63.5853C175.926 63.5853 175.462 63.7261 175.067 63.9898C174.672 64.2535 174.365 64.6283 174.183 65.0669C174.001 65.5054 173.954 65.988 174.047 66.4535C174.139 66.9191 174.368 67.3467 174.703 67.6824C175.039 68.018 175.467 68.2466 175.932 68.3392C176.398 68.4318 176.88 68.3843 177.319 68.2026C177.757 68.021 178.132 67.7133 178.396 67.3187C178.66 66.924 178.8 66.46 178.8 65.9853C178.8 65.349 178.547 64.7389 178.097 64.2889C177.647 63.839 177.037 63.5859 176.4 63.5853ZM176.4 67.1853C176.163 67.1853 175.931 67.1149 175.734 66.9831C175.536 66.8512 175.383 66.6638 175.292 66.4445C175.201 66.2253 175.177 65.984 175.223 65.7512C175.27 65.5184 175.384 65.3046 175.552 65.1368C175.72 64.9689 175.934 64.8547 176.166 64.8084C176.399 64.7621 176.64 64.7858 176.86 64.8766C177.079 64.9675 177.266 65.1213 177.398 65.3186C177.53 65.516 177.6 65.748 177.6 65.9853C177.6 66.3035 177.474 66.6085 177.249 66.8335C177.024 67.0585 176.719 67.185 176.4 67.1853ZM56.4004 0.731689C55.9257 0.731689 55.4617 0.872447 55.067 1.13616C54.6723 1.39988 54.3647 1.77471 54.1831 2.21325C54.0014 2.65179 53.9539 3.13435 54.0465 3.59991C54.1391 4.06546 54.3677 4.4931 54.7033 4.82875C55.039 5.16439 55.4666 5.39297 55.9322 5.48557C56.3977 5.57818 56.8803 5.53065 57.3188 5.349C57.7574 5.16735 58.1322 4.85974 58.3959 4.46506C58.6596 4.07038 58.8004 3.60636 58.8004 3.13169C58.7998 2.49536 58.5467 1.88528 58.0967 1.43533C57.6468 0.985385 57.0367 0.732325 56.4004 0.731689ZM56.4004 4.33169C56.163 4.33169 55.931 4.26131 55.7337 4.12945C55.5364 3.9976 55.3826 3.81018 55.2917 3.59091C55.2009 3.37164 55.1771 3.13036 55.2234 2.89758C55.2697 2.6648 55.384 2.45098 55.5519 2.28316C55.7197 2.11534 55.9335 2.00105 56.1663 1.95475C56.3991 1.90845 56.6403 1.93221 56.8596 2.02303C57.0789 2.11386 57.2663 2.26767 57.3982 2.46501C57.53 2.66234 57.6004 2.89435 57.6004 3.13169C57.6001 3.44985 57.4735 3.75489 57.2486 3.97987C57.0236 4.20484 56.7185 4.33137 56.4004 4.33169ZM148.401 15.5853C147.926 15.5853 147.462 15.726 147.067 15.9898C146.673 16.2535 146.365 16.6283 146.183 17.0669C146.002 17.5054 145.954 17.988 146.047 18.4535C146.14 18.9191 146.368 19.3467 146.704 19.6823C147.039 20.018 147.467 20.2466 147.933 20.3392C148.398 20.4318 148.881 20.3843 149.319 20.2026C149.758 20.021 150.133 19.7133 150.396 19.3187C150.66 18.924 150.801 18.46 150.801 17.9853C150.8 17.349 150.547 16.7389 150.097 16.2889C149.647 15.839 149.037 15.5859 148.401 15.5853ZM148.401 19.1853C148.163 19.1853 147.931 19.1149 147.734 18.9831C147.537 18.8512 147.383 18.6638 147.292 18.4445C147.201 18.2252 147.178 17.984 147.224 17.7512C147.27 17.5184 147.384 17.3046 147.552 17.1368C147.72 16.9689 147.934 16.8547 148.167 16.8083C148.399 16.762 148.641 16.7858 148.86 16.8766C149.079 16.9675 149.267 17.1213 149.399 17.3186C149.53 17.5159 149.601 17.748 149.601 17.9853C149.6 18.3035 149.474 18.6085 149.249 18.8335C149.024 19.0584 148.719 19.185 148.401 19.1853ZM21.2008 16.7853C21.2008 16.3106 21.06 15.8466 20.7963 15.4519C20.5326 15.0572 20.1578 14.7496 19.7192 14.568C19.2807 14.3863 18.7981 14.3388 18.3326 14.4314C17.867 14.524 17.4394 14.7526 17.1037 15.0882C16.7681 15.4239 16.5395 15.8515 16.4469 16.3171C16.3543 16.7826 16.4018 17.2652 16.5835 17.7037C16.7651 18.1423 17.0727 18.5171 17.4674 18.7808C17.8621 19.0445 18.3261 19.1853 18.8008 19.1853C19.4371 19.1847 20.0472 18.9316 20.4971 18.4816C20.9471 18.0317 21.2001 17.4216 21.2008 16.7853ZM17.6008 16.7853C17.6008 16.548 17.6712 16.3159 17.803 16.1186C17.9349 15.9213 18.1223 15.7675 18.3416 15.6766C18.5608 15.5858 18.8021 15.562 19.0349 15.6083C19.2677 15.6547 19.4815 15.7689 19.6493 15.9368C19.8171 16.1046 19.9314 16.3184 19.9777 16.5512C20.024 16.784 20.0003 17.0252 19.9094 17.2445C19.8186 17.4638 19.6648 17.6512 19.4675 17.7831C19.2701 17.9149 19.0381 17.9853 18.8008 17.9853C18.4826 17.985 18.1776 17.8584 17.9526 17.6335C17.7276 17.4085 17.6011 17.1035 17.6008 16.7853Z" fill="#002C22"/>
<path d="M198 153.54C198 185.296 171.137 211.04 138 211.04C104.863 211.04 78.0004 185.296 78.0004 153.54C78.0004 121.783 104.863 96.0398 138 96.0398C171.137 96.0398 198 121.783 198 153.54Z" fill="white"/>
<path fill-rule="evenodd" clip-rule="evenodd" d="M137.5 100.732C166.495 100.732 190 124.237 190 153.232C190 182.227 166.495 205.732 137.5 205.732C108.505 205.732 85 182.227 85 153.232C85 124.237 108.505 100.732 137.5 100.732ZM164.498 133.78C163.13 132.414 160.914 132.417 159.548 133.784L129.625 163.755L117.024 150.359C115.7 148.951 113.485 148.884 112.077 150.208C110.669 151.533 110.601 153.747 111.925 155.155L126.976 171.155C128.3 172.562 130.515 172.63 131.923 171.306C132.109 171.13 132.272 170.938 132.411 170.736C132.639 170.595 132.854 170.427 133.052 170.23L164.502 138.73C165.868 137.362 165.866 135.145 164.498 133.78Z" fill="#0FDCBC"/>
</svg>
