<svg width="783" height="245" viewBox="0 0 783 245" fill="none" xmlns="http://www.w3.org/2000/svg">
<g filter="url(#filter0_d_262_7606)">
<path d="M776 235.334C776 236.07 776.597 236.667 777.333 236.667C778.07 236.667 778.667 236.07 778.667 235.334C778.667 234.597 778.07 234 777.333 234C776.597 234 776 234.597 776 235.334ZM4.00001 1.33337C4.00001 2.06975 4.59696 2.66671 5.33334 2.66671C6.06972 2.66671 6.66668 2.06975 6.66668 1.33337C6.66668 0.596994 6.06972 4.06504e-05 5.33334 4.06504e-05C4.59696 4.06504e-05 4.00001 0.596994 4.00001 1.33337ZM393.82 165.584C393.958 165.584 394.07 165.472 394.07 165.334C394.07 165.196 393.958 165.084 393.82 165.084V165.334V165.584ZM400.756 165.084C400.618 165.084 400.506 165.196 400.506 165.334C400.506 165.472 400.618 165.584 400.756 165.584V165.334V165.084ZM403.729 165.584C403.867 165.584 403.979 165.472 403.979 165.334C403.979 165.196 403.867 165.084 403.729 165.084V165.334V165.584ZM410.665 165.084C410.527 165.084 410.415 165.196 410.415 165.334C410.415 165.472 410.527 165.584 410.665 165.584V165.334V165.084ZM413.638 165.584C413.776 165.584 413.888 165.472 413.888 165.334C413.888 165.196 413.776 165.084 413.638 165.084V165.334V165.584ZM420.575 165.084C420.437 165.084 420.325 165.196 420.325 165.334C420.325 165.472 420.437 165.584 420.575 165.584V165.334V165.084ZM423.547 165.584C423.685 165.584 423.797 165.472 423.797 165.334C423.797 165.196 423.685 165.084 423.547 165.084V165.334V165.584ZM430.484 165.084C430.346 165.084 430.234 165.196 430.234 165.334C430.234 165.472 430.346 165.584 430.484 165.584V165.334V165.084ZM433.457 165.584C433.595 165.584 433.707 165.472 433.707 165.334C433.707 165.196 433.595 165.084 433.457 165.084V165.334V165.584ZM440.393 165.084C440.255 165.084 440.143 165.196 440.143 165.334C440.143 165.472 440.255 165.584 440.393 165.584V165.334V165.084ZM443.366 165.584C443.504 165.584 443.616 165.472 443.616 165.334C443.616 165.196 443.504 165.084 443.366 165.084V165.334V165.584ZM450.302 165.084C450.164 165.084 450.052 165.196 450.052 165.334C450.052 165.472 450.164 165.584 450.302 165.584V165.334V165.084ZM453.275 165.584C453.413 165.584 453.525 165.472 453.525 165.334C453.525 165.196 453.413 165.084 453.275 165.084V165.334V165.584ZM460.212 165.084C460.073 165.084 459.962 165.196 459.962 165.334C459.962 165.472 460.073 165.584 460.212 165.584V165.334V165.084ZM463.184 165.584C463.322 165.584 463.434 165.472 463.434 165.334C463.434 165.196 463.322 165.084 463.184 165.084V165.334V165.584ZM470.121 165.084C469.983 165.084 469.871 165.196 469.871 165.334C469.871 165.472 469.983 165.584 470.121 165.584V165.334V165.084ZM473.094 165.584C473.232 165.584 473.344 165.472 473.344 165.334C473.344 165.196 473.232 165.084 473.094 165.084V165.334V165.584ZM480.03 165.084C479.892 165.084 479.78 165.196 479.78 165.334C479.78 165.472 479.892 165.584 480.03 165.584V165.334V165.084ZM483.003 165.584C483.141 165.584 483.253 165.472 483.253 165.334C483.253 165.196 483.141 165.084 483.003 165.084V165.334V165.584ZM489.939 165.084C489.801 165.084 489.689 165.196 489.689 165.334C489.689 165.472 489.801 165.584 489.939 165.584V165.334V165.084ZM492.912 165.584C493.05 165.584 493.162 165.472 493.162 165.334C493.162 165.196 493.05 165.084 492.912 165.084V165.334V165.584ZM499.848 165.084C499.71 165.084 499.598 165.196 499.598 165.334C499.598 165.472 499.71 165.584 499.848 165.584V165.334V165.084ZM502.821 165.584C502.959 165.584 503.071 165.472 503.071 165.334C503.071 165.196 502.959 165.084 502.821 165.084V165.334V165.584ZM509.758 165.084C509.62 165.084 509.508 165.196 509.508 165.334C509.508 165.472 509.62 165.584 509.758 165.584V165.334V165.084ZM512.73 165.584C512.869 165.584 512.98 165.472 512.98 165.334C512.98 165.196 512.869 165.084 512.73 165.084V165.334V165.584ZM519.667 165.084C519.529 165.084 519.417 165.196 519.417 165.334C519.417 165.472 519.529 165.584 519.667 165.584V165.334V165.084ZM522.64 165.584C522.778 165.584 522.89 165.472 522.89 165.334C522.89 165.196 522.778 165.084 522.64 165.084V165.334V165.584ZM529.576 165.084C529.438 165.084 529.326 165.196 529.326 165.334C529.326 165.472 529.438 165.584 529.576 165.584V165.334V165.084ZM532.549 165.584C532.687 165.584 532.799 165.472 532.799 165.334C532.799 165.196 532.687 165.084 532.549 165.084V165.334V165.584ZM539.485 165.084C539.347 165.084 539.235 165.196 539.235 165.334C539.235 165.472 539.347 165.584 539.485 165.584V165.334V165.084ZM542.458 165.584C542.596 165.584 542.708 165.472 542.708 165.334C542.708 165.196 542.596 165.084 542.458 165.084V165.334V165.584ZM549.395 165.084C549.257 165.084 549.145 165.196 549.145 165.334C549.145 165.472 549.257 165.584 549.395 165.584V165.334V165.084ZM552.367 165.584C552.505 165.584 552.617 165.472 552.617 165.334C552.617 165.196 552.505 165.084 552.367 165.084V165.334V165.584ZM559.304 165.084C559.166 165.084 559.054 165.196 559.054 165.334C559.054 165.472 559.166 165.584 559.304 165.584V165.334V165.084ZM562.277 165.584C562.415 165.584 562.527 165.472 562.527 165.334C562.527 165.196 562.415 165.084 562.277 165.084V165.334V165.584ZM569.213 165.084C569.075 165.084 568.963 165.196 568.963 165.334C568.963 165.472 569.075 165.584 569.213 165.584V165.334V165.084ZM572.186 165.584C572.324 165.584 572.436 165.472 572.436 165.334C572.436 165.196 572.324 165.084 572.186 165.084V165.334V165.584ZM579.122 165.084C578.984 165.084 578.872 165.196 578.872 165.334C578.872 165.472 578.984 165.584 579.122 165.584V165.334V165.084ZM582.095 165.584C582.233 165.584 582.345 165.472 582.345 165.334C582.345 165.196 582.233 165.084 582.095 165.084V165.334V165.584ZM589.032 165.084C588.893 165.084 588.782 165.196 588.782 165.334C588.782 165.472 588.893 165.584 589.032 165.584V165.334V165.084ZM592.004 165.584C592.142 165.584 592.254 165.472 592.254 165.334C592.254 165.196 592.142 165.084 592.004 165.084V165.334V165.584ZM598.941 165.084C598.803 165.084 598.691 165.196 598.691 165.334C598.691 165.472 598.803 165.584 598.941 165.584V165.334V165.084ZM601.914 165.584C602.052 165.584 602.164 165.472 602.164 165.334C602.164 165.196 602.052 165.084 601.914 165.084V165.334V165.584ZM608.85 165.084C608.712 165.084 608.6 165.196 608.6 165.334C608.6 165.472 608.712 165.584 608.85 165.584V165.334V165.084ZM611.823 165.584C611.961 165.584 612.073 165.472 612.073 165.334C612.073 165.196 611.961 165.084 611.823 165.084V165.334V165.584ZM618.759 165.084C618.621 165.084 618.509 165.196 618.509 165.334C618.509 165.472 618.621 165.584 618.759 165.584V165.334V165.084ZM621.732 165.584C621.87 165.584 621.982 165.472 621.982 165.334C621.982 165.196 621.87 165.084 621.732 165.084V165.334V165.584ZM628.668 165.084C628.53 165.084 628.418 165.196 628.418 165.334C628.418 165.472 628.53 165.584 628.668 165.584V165.334V165.084ZM631.641 165.584C631.779 165.584 631.891 165.472 631.891 165.334C631.891 165.196 631.779 165.084 631.641 165.084V165.334V165.584ZM638.578 165.084C638.44 165.084 638.328 165.196 638.328 165.334C638.328 165.472 638.44 165.584 638.578 165.584V165.334V165.084ZM641.55 165.584C641.689 165.584 641.8 165.472 641.8 165.334C641.8 165.196 641.689 165.084 641.55 165.084V165.334V165.584ZM648.487 165.084C648.349 165.084 648.237 165.196 648.237 165.334C648.237 165.472 648.349 165.584 648.487 165.584V165.334V165.084ZM651.46 165.584C651.598 165.584 651.71 165.472 651.71 165.334C651.71 165.196 651.598 165.084 651.46 165.084V165.334V165.584ZM658.396 165.084C658.258 165.084 658.146 165.196 658.146 165.334C658.146 165.472 658.258 165.584 658.396 165.584V165.334V165.084ZM661.369 165.584C661.507 165.584 661.619 165.472 661.619 165.334C661.619 165.196 661.507 165.084 661.369 165.084V165.334V165.584ZM668.305 165.084C668.167 165.084 668.055 165.196 668.055 165.334C668.055 165.472 668.167 165.584 668.305 165.584V165.334V165.084ZM671.278 165.584C671.416 165.584 671.528 165.472 671.528 165.334C671.528 165.196 671.416 165.084 671.278 165.084V165.334V165.584ZM678.215 165.084C678.077 165.084 677.965 165.196 677.965 165.334C677.965 165.472 678.077 165.584 678.215 165.584V165.334V165.084ZM681.187 165.584C681.325 165.584 681.437 165.472 681.437 165.334C681.437 165.196 681.325 165.084 681.187 165.084V165.334V165.584ZM688.124 165.084C687.986 165.084 687.874 165.196 687.874 165.334C687.874 165.472 687.986 165.584 688.124 165.584V165.334V165.084ZM691.097 165.584C691.235 165.584 691.347 165.472 691.347 165.334C691.347 165.196 691.235 165.084 691.097 165.084V165.334V165.584ZM698.033 165.084C697.895 165.084 697.783 165.196 697.783 165.334C697.783 165.472 697.895 165.584 698.033 165.584V165.334V165.084ZM701.006 165.584C701.144 165.584 701.256 165.472 701.256 165.334C701.256 165.196 701.144 165.084 701.006 165.084V165.334V165.584ZM707.942 165.084C707.804 165.084 707.692 165.196 707.692 165.334C707.692 165.472 707.804 165.584 707.942 165.584V165.334V165.084ZM710.915 165.584C711.053 165.584 711.165 165.472 711.165 165.334C711.165 165.196 711.053 165.084 710.915 165.084V165.334V165.584ZM717.852 165.084C717.713 165.084 717.602 165.196 717.602 165.334C717.602 165.472 717.713 165.584 717.852 165.584V165.334V165.084ZM720.818 165.593C720.956 165.595 721.069 165.484 721.071 165.346C721.073 165.208 720.962 165.095 720.824 165.093L720.821 165.343L720.818 165.593ZM727.577 165.395C727.44 165.384 727.319 165.487 727.308 165.625C727.298 165.762 727.4 165.883 727.538 165.894L727.558 165.644L727.577 165.395ZM730.371 166.161C730.508 166.176 730.632 166.077 730.647 165.94C730.662 165.803 730.563 165.679 730.426 165.664L730.398 165.913L730.371 166.161ZM737.12 166.689C736.984 166.662 736.853 166.75 736.826 166.886C736.799 167.021 736.887 167.153 737.022 167.18L737.071 166.934L737.12 166.689ZM739.824 167.798C739.958 167.831 740.093 167.749 740.126 167.614C740.159 167.48 740.076 167.345 739.942 167.312L739.883 167.555L739.824 167.798ZM746.42 169.273C746.291 169.225 746.147 169.291 746.099 169.421C746.052 169.55 746.118 169.694 746.248 169.742L746.334 169.507L746.42 169.273ZM748.892 170.797C749.019 170.851 749.166 170.793 749.221 170.666C749.275 170.539 749.217 170.392 749.09 170.338L748.991 170.567L748.892 170.797ZM755.113 173.46C754.996 173.387 754.842 173.424 754.769 173.541C754.697 173.659 754.733 173.813 754.851 173.885L754.982 173.672L755.113 173.46ZM757.242 175.474C757.354 175.554 757.511 175.528 757.591 175.416C757.671 175.304 757.645 175.148 757.533 175.067L757.387 175.271L757.242 175.474ZM762.691 179.443C762.594 179.346 762.435 179.345 762.338 179.443C762.24 179.54 762.239 179.698 762.337 179.796L762.514 179.62L762.691 179.443ZM764.282 181.899C764.372 182.003 764.53 182.015 764.635 181.925C764.74 181.835 764.751 181.677 764.661 181.572L764.472 181.735L764.282 181.899ZM768.635 187.052C768.563 186.934 768.409 186.896 768.291 186.968C768.174 187.04 768.136 187.193 768.208 187.311L768.421 187.181L768.635 187.052ZM769.617 189.81C769.681 189.932 769.832 189.98 769.955 189.916C770.077 189.852 770.124 189.701 770.061 189.579L769.839 189.694L769.617 189.81ZM772.763 195.782C772.716 195.652 772.573 195.584 772.443 195.631C772.313 195.677 772.246 195.82 772.292 195.95L772.528 195.866L772.763 195.782ZM773.192 198.68C773.232 198.812 773.372 198.887 773.504 198.847C773.636 198.807 773.711 198.667 773.671 198.535L773.432 198.607L773.192 198.68ZM775.278 205.103C775.252 204.967 775.121 204.879 774.985 204.905C774.85 204.931 774.761 205.062 774.787 205.198L775.032 205.15L775.278 205.103ZM775.279 208.034C775.3 208.17 775.428 208.264 775.565 208.243C775.701 208.222 775.795 208.094 775.773 207.957L775.526 207.996L775.279 208.034ZM776.56 214.665C776.549 214.528 776.428 214.425 776.29 214.437C776.153 214.448 776.051 214.569 776.062 214.707L776.311 214.686L776.56 214.665ZM776.268 217.581C776.276 217.719 776.395 217.824 776.533 217.816C776.671 217.807 776.776 217.689 776.767 217.551L776.518 217.566L776.268 217.581ZM777.04 224.297C777.036 224.159 776.921 224.05 776.783 224.053C776.645 224.057 776.536 224.172 776.54 224.31L776.79 224.303L777.04 224.297ZM776.608 227.199C776.611 227.337 776.726 227.446 776.864 227.443C777.002 227.44 777.111 227.325 777.108 227.187L776.858 227.193L776.608 227.199ZM777.406 233.881C777.392 233.743 777.27 233.643 777.133 233.656C776.995 233.669 776.895 233.791 776.908 233.929L777.157 233.905L777.406 233.881ZM5.17102 2.78394C5.17851 2.92181 5.29635 3.02749 5.43422 3.02C5.57209 3.0125 5.67778 2.89467 5.67028 2.7568L5.42065 2.77037L5.17102 2.78394ZM5.91618 9.81024C5.91319 9.6722 5.79887 9.56272 5.66083 9.56571C5.52279 9.56869 5.41331 9.68302 5.41629 9.82106L5.66624 9.81565L5.91618 9.81024ZM5.47209 12.8518C5.47426 12.9898 5.58792 13.1 5.72598 13.0978C5.86403 13.0957 5.97419 12.982 5.97203 12.844L5.72206 12.8479L5.47209 12.8518ZM6.05696 19.8483C6.05557 19.7102 5.94253 19.5994 5.80446 19.6008C5.6664 19.6022 5.5556 19.7152 5.55698 19.8533L5.80697 19.8508L6.05696 19.8483ZM5.58684 22.8861C5.58819 23.0242 5.70122 23.135 5.83928 23.1336C5.97735 23.1323 6.08817 23.0193 6.08681 22.8812L5.83683 22.8836L5.58684 22.8861ZM6.16329 29.9074C6.16155 29.7693 6.04822 29.6588 5.91016 29.6606C5.7721 29.6623 5.66159 29.7756 5.66333 29.9137L5.91331 29.9105L6.16329 29.9074ZM5.7043 32.9074C5.70635 33.0454 5.81993 33.1557 5.95799 33.1536C6.09604 33.1516 6.20629 33.038 6.20424 32.9L5.95427 32.9037L5.7043 32.9074ZM6.33278 39.9341C6.32973 39.796 6.21535 39.6866 6.07732 39.6897C5.93928 39.6927 5.82985 39.8071 5.8329 39.9451L6.08284 39.9396L6.33278 39.9341ZM5.90521 42.958C5.90879 43.0961 6.02358 43.205 6.16161 43.2015C6.29963 43.1979 6.40862 43.0831 6.40504 42.9451L6.15512 42.9515L5.90521 42.958ZM6.6228 49.9651C6.61778 49.8272 6.50185 49.7194 6.36387 49.7244C6.22589 49.7294 6.11811 49.8454 6.12314 49.9833L6.37297 49.9742L6.6228 49.9651ZM6.24059 52.9972C6.24632 53.1352 6.3628 53.2423 6.50075 53.2366C6.63871 53.2309 6.74589 53.1144 6.74016 52.9764L6.49037 52.9868L6.24059 52.9972ZM7.07776 59.9949C7.07018 59.8571 6.95228 59.7514 6.81441 59.759C6.67655 59.7666 6.57093 59.8845 6.57851 60.0224L6.82814 60.0086L7.07776 59.9949ZM6.75343 63.0308C6.76188 63.1686 6.88046 63.2735 7.01827 63.265C7.15608 63.2565 7.26094 63.138 7.25249 63.0002L7.00296 63.0155L6.75343 63.0308ZM7.73888 70.0077C7.72817 69.87 7.60789 69.7671 7.47024 69.7779C7.33258 69.7886 7.22967 69.9088 7.24039 70.0465L7.48964 70.0271L7.73888 70.0077ZM7.48565 73.0491C7.49742 73.1866 7.61849 73.2886 7.75606 73.2768C7.89363 73.265 7.9956 73.144 7.98382 73.0064L7.73474 73.0277L7.48565 73.0491ZM8.65074 79.9988C8.63624 79.8615 8.51317 79.762 8.37586 79.7765C8.23856 79.791 8.139 79.914 8.1535 80.0513L8.40212 80.0251L8.65074 79.9988ZM8.48405 83.0487C8.49983 83.1858 8.62382 83.2842 8.76098 83.2685C8.89815 83.2527 8.99655 83.1287 8.98077 82.9915L8.73241 83.0201L8.48405 83.0487ZM9.86486 89.9564C9.8458 89.8197 9.71949 89.7243 9.58274 89.7434C9.44599 89.7624 9.35059 89.8887 9.36965 90.0255L9.61726 89.991L9.86486 89.9564ZM9.8031 93.0121C9.82371 93.1486 9.9511 93.2426 10.0876 93.2219C10.2241 93.2013 10.3181 93.0739 10.2975 92.9374L10.0503 92.9747L9.8031 93.0121ZM11.4448 99.8649C11.4202 99.729 11.2902 99.6388 11.1543 99.6634C11.0184 99.688 10.9282 99.8181 10.9528 99.9539L11.1988 99.9094L11.4448 99.8649ZM11.5084 102.907C11.5349 103.042 11.6662 103.131 11.8017 103.104C11.9372 103.078 12.0256 102.946 11.9991 102.811L11.7538 102.859L11.5084 102.907ZM13.4659 109.672C13.4345 109.537 13.3001 109.454 13.1656 109.485C13.0311 109.516 12.9476 109.651 12.9789 109.785L13.2224 109.728L13.4659 109.672ZM13.6933 112.732C13.7271 112.866 13.8629 112.947 13.9968 112.913C14.1307 112.88 14.2119 112.744 14.1782 112.61L13.9358 112.671L13.6933 112.732ZM16.0425 119.374C16.0027 119.242 15.8633 119.167 15.7311 119.207C15.5989 119.247 15.524 119.386 15.5638 119.519L15.8032 119.447L16.0425 119.374ZM16.4595 122.38C16.5022 122.511 16.6433 122.583 16.7746 122.54C16.9058 122.497 16.9777 122.356 16.9349 122.225L16.6972 122.302L16.4595 122.38ZM19.2957 128.831C19.2453 128.702 19.1002 128.639 18.9717 128.689C18.8431 128.74 18.7798 128.885 18.8302 129.013L19.063 128.922L19.2957 128.831ZM19.9792 131.823C20.0334 131.95 20.1802 132.009 20.3072 131.955C20.4343 131.901 20.4933 131.754 20.4392 131.627L20.2092 131.725L19.9792 131.823ZM23.4267 137.959C23.3628 137.836 23.2118 137.789 23.0894 137.853C22.967 137.917 22.9196 138.068 22.9835 138.19L23.2051 138.074L23.4267 137.959ZM24.4317 140.838C24.5004 140.958 24.6531 140.999 24.7729 140.931C24.8927 140.862 24.9342 140.709 24.8656 140.589L24.6487 140.714L24.4317 140.838ZM28.6508 146.48C28.5699 146.368 28.4136 146.343 28.3017 146.424C28.1898 146.505 28.1646 146.661 28.2455 146.773L28.4481 146.627L28.6508 146.48ZM30.0666 149.162C30.1532 149.27 30.3105 149.287 30.4181 149.201C30.5257 149.114 30.5427 148.957 30.4562 148.849L30.2614 149.006L30.0666 149.162ZM35.2013 153.99C35.1006 153.895 34.9424 153.9 34.8479 154.001C34.7535 154.102 34.7585 154.26 34.8592 154.355L35.0303 154.172L35.2013 153.99ZM37.1334 156.349C37.2402 156.437 37.3977 156.421 37.4852 156.314C37.5727 156.207 37.557 156.05 37.4501 155.962L37.2918 156.156L37.1334 156.349ZM43.1947 159.908C43.0746 159.84 42.922 159.883 42.854 160.003C42.786 160.123 42.8283 160.275 42.9485 160.343L43.0716 160.126L43.1947 159.908ZM45.639 161.733C45.7641 161.791 45.9129 161.737 45.9715 161.612C46.03 161.487 45.9761 161.338 45.8511 161.28L45.7451 161.506L45.639 161.733ZM52.4138 163.661C52.2803 163.625 52.1434 163.705 52.108 163.838C52.0727 163.972 52.1522 164.109 52.2857 164.144L52.3497 163.902L52.4138 163.661ZM55.2103 164.806C55.346 164.832 55.4767 164.743 55.5024 164.607C55.528 164.471 55.4388 164.34 55.3031 164.315L55.2567 164.561L55.2103 164.806ZM62.2446 165.06C62.1066 165.055 61.9912 165.164 61.9869 165.302C61.9827 165.44 62.0911 165.555 62.2291 165.559L62.2368 165.31L62.2446 165.06ZM65.2787 165.583C65.4168 165.583 65.5287 165.471 65.5287 165.333C65.5287 165.195 65.4168 165.083 65.2787 165.083V165.333V165.583ZM72.2692 165.083C72.1311 165.083 72.0192 165.195 72.0192 165.333C72.0192 165.471 72.1311 165.583 72.2692 165.583V165.333V165.083ZM75.2651 165.583C75.4032 165.583 75.5151 165.471 75.5151 165.333C75.5151 165.195 75.4032 165.083 75.2651 165.083V165.333V165.583ZM82.2557 165.083C82.1176 165.083 82.0057 165.195 82.0057 165.333C82.0057 165.471 82.1176 165.583 82.2557 165.583V165.333V165.083ZM85.2516 165.583C85.3897 165.583 85.5016 165.471 85.5016 165.333C85.5016 165.195 85.3897 165.083 85.2516 165.083V165.333V165.583ZM92.2421 165.083C92.104 165.083 91.9921 165.195 91.9921 165.333C91.9921 165.471 92.104 165.583 92.2421 165.583V165.333V165.083ZM95.238 165.583C95.3761 165.583 95.488 165.471 95.488 165.333C95.488 165.195 95.3761 165.083 95.238 165.083V165.333V165.583ZM102.229 165.083C102.09 165.083 101.979 165.195 101.979 165.333C101.979 165.471 102.09 165.583 102.229 165.583V165.333V165.083ZM105.224 165.583C105.363 165.583 105.474 165.471 105.474 165.333C105.474 165.195 105.363 165.083 105.224 165.083V165.333V165.583ZM112.215 165.083C112.077 165.083 111.965 165.195 111.965 165.333C111.965 165.471 112.077 165.583 112.215 165.583V165.333V165.083ZM115.211 165.583C115.349 165.583 115.461 165.471 115.461 165.333C115.461 165.195 115.349 165.083 115.211 165.083V165.333V165.583ZM122.201 165.083C122.063 165.083 121.951 165.195 121.951 165.333C121.951 165.471 122.063 165.583 122.201 165.583V165.333V165.083ZM125.197 165.583C125.335 165.583 125.447 165.471 125.447 165.333C125.447 165.195 125.335 165.083 125.197 165.083V165.333V165.583ZM132.188 165.083C132.05 165.083 131.938 165.195 131.938 165.333C131.938 165.471 132.05 165.583 132.188 165.583V165.333V165.083ZM135.184 165.583C135.322 165.583 135.434 165.471 135.434 165.333C135.434 165.195 135.322 165.083 135.184 165.083V165.333V165.583ZM142.174 165.083C142.036 165.083 141.924 165.195 141.924 165.333C141.924 165.471 142.036 165.583 142.174 165.583V165.333V165.083ZM145.17 165.583C145.308 165.583 145.42 165.471 145.42 165.333C145.42 165.195 145.308 165.083 145.17 165.083V165.333V165.583ZM152.161 165.083C152.023 165.083 151.911 165.195 151.911 165.333C151.911 165.471 152.023 165.583 152.161 165.583V165.333V165.083ZM155.157 165.583C155.295 165.583 155.407 165.471 155.407 165.333C155.407 165.195 155.295 165.083 155.157 165.083V165.333V165.583ZM162.147 165.083C162.009 165.083 161.897 165.195 161.897 165.333C161.897 165.471 162.009 165.583 162.147 165.583V165.333V165.083ZM165.143 165.583C165.281 165.583 165.393 165.471 165.393 165.333C165.393 165.195 165.281 165.083 165.143 165.083V165.333V165.583ZM172.134 165.083C171.996 165.083 171.884 165.195 171.884 165.333C171.884 165.471 171.996 165.583 172.134 165.583V165.333V165.083ZM175.13 165.583C175.268 165.583 175.38 165.471 175.38 165.333C175.38 165.195 175.268 165.083 175.13 165.083V165.333V165.583ZM182.12 165.083C181.982 165.083 181.87 165.195 181.87 165.333C181.87 165.471 181.982 165.583 182.12 165.583V165.333V165.083ZM185.116 165.583C185.254 165.583 185.366 165.471 185.366 165.333C185.366 165.195 185.254 165.083 185.116 165.083V165.333V165.583ZM192.107 165.083C191.968 165.083 191.857 165.195 191.857 165.333C191.857 165.471 191.968 165.583 192.107 165.583V165.333V165.083ZM195.102 165.583C195.241 165.583 195.352 165.471 195.352 165.333C195.352 165.195 195.241 165.083 195.102 165.083V165.333V165.583ZM202.093 165.083C201.955 165.083 201.843 165.195 201.843 165.333C201.843 165.471 201.955 165.583 202.093 165.583V165.333V165.083ZM205.089 165.583C205.227 165.583 205.339 165.471 205.339 165.333C205.339 165.195 205.227 165.083 205.089 165.083V165.333V165.583ZM212.079 165.083C211.941 165.083 211.829 165.195 211.829 165.333C211.829 165.471 211.941 165.583 212.079 165.583V165.333V165.083ZM215.075 165.583C215.213 165.583 215.325 165.471 215.325 165.333C215.325 165.195 215.213 165.083 215.075 165.083V165.333V165.583ZM222.066 165.083C221.928 165.083 221.816 165.195 221.816 165.333C221.816 165.471 221.928 165.583 222.066 165.583V165.333V165.083ZM225.062 165.583C225.2 165.583 225.312 165.471 225.312 165.333C225.312 165.195 225.2 165.083 225.062 165.083V165.333V165.583ZM232.052 165.083C231.914 165.083 231.802 165.195 231.802 165.333C231.802 165.471 231.914 165.583 232.052 165.583V165.333V165.083ZM235.048 165.583C235.186 165.583 235.298 165.471 235.298 165.333C235.298 165.195 235.186 165.083 235.048 165.083V165.333V165.583ZM242.039 165.083C241.901 165.083 241.789 165.195 241.789 165.333C241.789 165.471 241.901 165.583 242.039 165.583V165.333V165.083ZM245.035 165.583C245.173 165.583 245.285 165.471 245.285 165.333C245.285 165.195 245.173 165.083 245.035 165.083V165.333V165.583ZM252.025 165.083C251.887 165.083 251.775 165.195 251.775 165.333C251.775 165.471 251.887 165.583 252.025 165.583V165.333V165.083ZM255.021 165.583C255.159 165.583 255.271 165.471 255.271 165.333C255.271 165.195 255.159 165.083 255.021 165.083V165.333V165.583ZM262.012 165.083C261.874 165.083 261.762 165.195 261.762 165.333C261.762 165.471 261.874 165.583 262.012 165.583V165.333V165.083ZM265.008 165.583C265.146 165.583 265.258 165.471 265.258 165.333C265.258 165.195 265.146 165.083 265.008 165.083V165.333V165.583ZM271.998 165.083C271.86 165.083 271.748 165.195 271.748 165.333C271.748 165.471 271.86 165.583 271.998 165.583V165.333V165.083ZM274.994 165.583C275.132 165.583 275.244 165.471 275.244 165.333C275.244 165.195 275.132 165.083 274.994 165.083V165.333V165.583ZM281.984 165.083C281.846 165.083 281.734 165.195 281.734 165.333C281.734 165.471 281.846 165.583 281.984 165.583V165.333V165.083ZM284.98 165.583C285.118 165.583 285.23 165.471 285.23 165.333C285.23 165.195 285.118 165.083 284.98 165.083V165.333V165.583ZM291.971 165.083C291.833 165.083 291.721 165.195 291.721 165.333C291.721 165.471 291.833 165.583 291.971 165.583V165.333V165.083ZM294.967 165.583C295.105 165.583 295.217 165.471 295.217 165.333C295.217 165.195 295.105 165.083 294.967 165.083V165.333V165.583ZM301.957 165.083C301.819 165.083 301.707 165.195 301.707 165.333C301.707 165.471 301.819 165.583 301.957 165.583V165.333V165.083ZM304.953 165.583C305.091 165.583 305.203 165.471 305.203 165.333C305.203 165.195 305.091 165.083 304.953 165.083V165.333V165.583ZM311.944 165.083C311.806 165.083 311.694 165.195 311.694 165.333C311.694 165.471 311.806 165.583 311.944 165.583V165.333V165.083ZM314.94 165.583C315.078 165.583 315.19 165.471 315.19 165.333C315.19 165.195 315.078 165.083 314.94 165.083V165.333V165.583ZM321.93 165.083C321.792 165.083 321.68 165.195 321.68 165.333C321.68 165.471 321.792 165.583 321.93 165.583V165.333V165.083ZM324.926 165.583C325.064 165.583 325.176 165.471 325.176 165.333C325.176 165.195 325.064 165.083 324.926 165.083V165.333V165.583ZM331.917 165.083C331.779 165.083 331.667 165.195 331.667 165.333C331.667 165.471 331.779 165.583 331.917 165.583V165.333V165.083ZM334.913 165.583C335.051 165.583 335.163 165.471 335.163 165.333C335.163 165.195 335.051 165.083 334.913 165.083V165.333V165.583ZM341.903 165.083C341.765 165.083 341.653 165.195 341.653 165.333C341.653 165.471 341.765 165.583 341.903 165.583V165.333V165.083ZM344.899 165.583C345.037 165.583 345.149 165.471 345.149 165.333C345.149 165.195 345.037 165.083 344.899 165.083V165.333V165.583ZM351.89 165.083C351.751 165.083 351.64 165.195 351.64 165.333C351.64 165.471 351.751 165.583 351.89 165.583V165.333V165.083ZM354.885 165.583C355.024 165.583 355.135 165.471 355.135 165.333C355.135 165.195 355.024 165.083 354.885 165.083V165.333V165.583ZM361.876 165.083C361.738 165.083 361.626 165.195 361.626 165.333C361.626 165.471 361.738 165.583 361.876 165.583V165.333V165.083ZM364.872 165.583C365.01 165.583 365.122 165.471 365.122 165.333C365.122 165.195 365.01 165.083 364.872 165.083V165.333V165.583ZM371.862 165.083C371.724 165.083 371.612 165.195 371.612 165.333C371.612 165.471 371.724 165.583 371.862 165.583V165.333V165.083ZM374.858 165.583C374.996 165.583 375.108 165.471 375.108 165.333C375.108 165.195 374.996 165.083 374.858 165.083V165.333V165.583ZM381.849 165.083C381.711 165.083 381.599 165.195 381.599 165.333C381.599 165.471 381.711 165.583 381.849 165.583V165.333V165.083ZM384.845 165.583C384.983 165.583 385.095 165.471 385.095 165.333C385.095 165.195 384.983 165.083 384.845 165.083V165.333V165.583ZM391.835 165.083C391.697 165.083 391.585 165.195 391.585 165.333C391.585 165.471 391.697 165.583 391.835 165.583V165.333V165.083ZM392.333 165.334V165.584H393.82V165.334V165.084H392.333V165.334ZM400.756 165.334V165.584H403.729V165.334V165.084H400.756V165.334ZM410.665 165.334V165.584H413.638V165.334V165.084H410.665V165.334ZM420.575 165.334V165.584H423.547V165.334V165.084H420.575V165.334ZM430.484 165.334V165.584H433.457V165.334V165.084H430.484V165.334ZM440.393 165.334V165.584H443.366V165.334V165.084H440.393V165.334ZM450.302 165.334V165.584H453.275V165.334V165.084H450.302V165.334ZM460.212 165.334V165.584H463.184V165.334V165.084H460.212V165.334ZM470.121 165.334V165.584H473.094V165.334V165.084H470.121V165.334ZM480.03 165.334V165.584H483.003V165.334V165.084H480.03V165.334ZM489.939 165.334V165.584H492.912V165.334V165.084H489.939V165.334ZM499.848 165.334V165.584H502.821V165.334V165.084H499.848V165.334ZM509.758 165.334V165.584H512.73V165.334V165.084H509.758V165.334ZM519.667 165.334V165.584H522.64V165.334V165.084H519.667V165.334ZM529.576 165.334V165.584H532.549V165.334V165.084H529.576V165.334ZM539.485 165.334V165.584H542.458V165.334V165.084H539.485V165.334ZM549.395 165.334V165.584H552.367V165.334V165.084H549.395V165.334ZM559.304 165.334V165.584H562.277V165.334V165.084H559.304V165.334ZM569.213 165.334V165.584H572.186V165.334V165.084H569.213V165.334ZM579.122 165.334V165.584H582.095V165.334V165.084H579.122V165.334ZM589.032 165.334V165.584H592.004V165.334V165.084H589.032V165.334ZM598.941 165.334V165.584H601.914V165.334V165.084H598.941V165.334ZM608.85 165.334V165.584H611.823V165.334V165.084H608.85V165.334ZM618.759 165.334V165.584H621.732V165.334V165.084H618.759V165.334ZM628.668 165.334V165.584H631.641V165.334V165.084H628.668V165.334ZM638.578 165.334V165.584H641.55V165.334V165.084H638.578V165.334ZM648.487 165.334V165.584H651.46V165.334V165.084H648.487V165.334ZM658.396 165.334V165.584H661.369V165.334V165.084H658.396V165.334ZM668.305 165.334V165.584H671.278V165.334V165.084H668.305V165.334ZM678.215 165.334V165.584H681.187V165.334V165.084H678.215V165.334ZM688.124 165.334V165.584H691.097V165.334V165.084H688.124V165.334ZM698.033 165.334V165.584H701.006V165.334V165.084H698.033V165.334ZM707.942 165.334V165.584H710.915V165.334V165.084H707.942V165.334ZM717.852 165.334V165.584H719.338V165.334V165.084H717.852V165.334ZM719.338 165.334V165.584C719.836 165.584 720.329 165.587 720.818 165.593L720.821 165.343L720.824 165.093C720.333 165.087 719.838 165.084 719.338 165.084V165.334ZM727.558 165.644L727.538 165.894C728.501 165.969 729.445 166.059 730.371 166.161L730.398 165.913L730.426 165.664C729.495 165.561 728.546 165.471 727.577 165.395L727.558 165.644ZM737.071 166.934L737.022 167.18C737.979 167.37 738.913 167.577 739.824 167.798L739.883 167.555L739.942 167.312C739.024 167.089 738.084 166.881 737.12 166.689L737.071 166.934ZM746.334 169.507L746.248 169.742C747.157 170.076 748.038 170.428 748.892 170.797L748.991 170.567L749.09 170.338C748.227 169.965 747.338 169.61 746.42 169.273L746.334 169.507ZM754.982 173.672L754.851 173.885C755.68 174.396 756.476 174.926 757.242 175.474L757.387 175.271L757.533 175.067C756.758 174.513 755.952 173.977 755.113 173.46L754.982 173.672ZM762.514 179.62L762.337 179.796C763.018 180.481 763.666 181.182 764.282 181.899L764.472 181.735L764.661 181.572C764.037 180.847 763.381 180.137 762.691 179.443L762.514 179.62ZM768.421 187.181L768.208 187.311C768.708 188.133 769.177 188.966 769.617 189.81L769.839 189.694L770.061 189.579C769.615 188.726 769.141 187.883 768.635 187.052L768.421 187.181ZM772.528 195.866L772.292 195.95C772.617 196.856 772.916 197.766 773.192 198.68L773.432 198.607L773.671 198.535C773.393 197.614 773.091 196.695 772.763 195.782L772.528 195.866ZM775.032 205.15L774.787 205.198C774.97 206.147 775.133 207.093 775.279 208.034L775.526 207.996L775.773 207.957C775.627 207.011 775.462 206.058 775.278 205.103L775.032 205.15ZM776.311 214.686L776.062 214.707C776.144 215.679 776.211 216.638 776.268 217.581L776.518 217.566L776.767 217.551C776.71 216.605 776.642 215.642 776.56 214.665L776.311 214.686ZM776.79 224.303L776.54 224.31C776.566 225.309 776.587 226.274 776.608 227.199L776.858 227.193L777.108 227.187C777.087 226.263 777.066 225.298 777.04 224.297L776.79 224.303ZM777.157 233.905L776.908 233.929C776.957 234.444 777.016 234.926 777.086 235.373L777.333 235.334L777.58 235.295C777.512 234.861 777.454 234.389 777.406 233.881L777.157 233.905ZM5.33334 1.33337L5.08392 1.35029C5.11514 1.81081 5.14411 2.28888 5.17102 2.78394L5.42065 2.77037L5.67028 2.7568C5.64326 2.25976 5.61417 1.77945 5.58277 1.31646L5.33334 1.33337ZM5.66624 9.81565L5.41629 9.82106C5.4374 10.7966 5.45572 11.8076 5.47209 12.8518L5.72206 12.8479L5.97203 12.844C5.95565 11.7989 5.93731 10.787 5.91618 9.81024L5.66624 9.81565ZM5.80697 19.8508L5.55698 19.8533C5.56693 20.8441 5.57671 21.8554 5.58684 22.8861L5.83683 22.8836L6.08681 22.8812C6.07669 21.8506 6.0669 20.8392 6.05696 19.8483L5.80697 19.8508ZM5.91331 29.9105L5.66333 29.9137C5.67575 30.8989 5.68929 31.897 5.7043 32.9074L5.95427 32.9037L6.20424 32.9C6.18924 31.89 6.1757 30.8922 6.16329 29.9074L5.91331 29.9105ZM6.08284 39.9396L5.8329 39.9451C5.85492 40.9407 5.87892 41.9453 5.90521 42.958L6.15512 42.9515L6.40504 42.9451C6.37877 41.933 6.35478 40.9291 6.33278 39.9341L6.08284 39.9396ZM6.37297 49.9742L6.12314 49.9833C6.15953 50.9822 6.1986 51.987 6.24059 52.9972L6.49037 52.9868L6.74016 52.9764C6.6982 51.9672 6.65917 50.9632 6.6228 49.9651L6.37297 49.9742ZM6.82814 60.0086L6.57851 60.0224C6.63346 61.0217 6.69169 62.0247 6.75343 63.0308L7.00296 63.0155L7.25249 63.0002C7.19082 61.9952 7.13265 60.9932 7.07776 59.9949L6.82814 60.0086ZM7.48964 70.0271L7.24039 70.0465C7.31817 71.0458 7.39985 72.0469 7.48565 73.0491L7.73474 73.0277L7.98382 73.0064C7.89814 72.0055 7.81657 71.0058 7.73888 70.0077L7.48964 70.0271ZM8.40212 80.0251L8.1535 80.0513C8.25904 81.0508 8.36916 82.05 8.48405 83.0487L8.73241 83.0201L8.98077 82.9915C8.86606 81.9945 8.75612 80.9967 8.65074 79.9988L8.40212 80.0251ZM9.61726 89.991L9.36965 90.0255C9.50873 91.0231 9.65314 92.0188 9.8031 93.0121L10.0503 92.9747L10.2975 92.9374C10.1478 91.9461 10.0037 90.9523 9.86486 89.9564L9.61726 89.991ZM11.1988 99.9094L10.9528 99.9539C11.1318 100.942 11.3169 101.927 11.5084 102.907L11.7538 102.859L11.9991 102.811C11.8081 101.833 11.6234 100.851 11.4448 99.8649L11.1988 99.9094ZM13.2224 109.728L12.9789 109.785C13.2096 110.774 13.4476 111.756 13.6933 112.732L13.9358 112.671L14.1782 112.61C13.9332 111.637 13.6959 110.657 13.4659 109.672L13.2224 109.728ZM15.8032 119.447L15.5638 119.519C15.8536 120.481 16.1521 121.435 16.4595 122.38L16.6972 122.302L16.9349 122.225C16.6287 121.284 16.3314 120.334 16.0425 119.374L15.8032 119.447ZM19.063 128.922L18.8302 129.013C19.2024 129.962 19.5853 130.899 19.9792 131.823L20.2092 131.725L20.4392 131.627C20.0472 130.708 19.6662 129.775 19.2957 128.831L19.063 128.922ZM23.2051 138.074L22.9835 138.19C23.4532 139.089 23.9358 139.972 24.4317 140.838L24.6487 140.714L24.8656 140.589C24.373 139.729 23.8935 138.852 23.4267 137.959L23.2051 138.074ZM28.4481 146.627L28.2455 146.773C28.8367 147.591 29.4436 148.388 30.0666 149.162L30.2614 149.006L30.4562 148.849C29.8387 148.082 29.237 147.292 28.6508 146.48L28.4481 146.627ZM35.0303 154.172L34.8592 154.355C35.5982 155.048 36.3561 155.713 37.1334 156.349L37.2918 156.156L37.4501 155.962C36.6817 155.333 35.9322 154.675 35.2013 153.99L35.0303 154.172ZM43.0716 160.126L42.9485 160.343C43.8244 160.839 44.7211 161.303 45.639 161.733L45.7451 161.506L45.8511 161.28C44.9449 160.855 44.0596 160.398 43.1947 159.908L43.0716 160.126ZM52.3497 163.902L52.2857 164.144C53.2409 164.397 54.2156 164.618 55.2103 164.806L55.2567 164.561L55.3031 164.315C54.3202 164.129 53.3572 163.911 52.4138 163.661L52.3497 163.902ZM62.2368 165.31L62.2291 165.559C62.7417 165.575 63.2589 165.583 63.7807 165.583V165.333V165.083C63.264 165.083 62.7519 165.075 62.2446 165.06L62.2368 165.31ZM63.7807 165.333V165.583H65.2787V165.333V165.083H63.7807V165.333ZM72.2692 165.333V165.583H75.2651V165.333V165.083H72.2692V165.333ZM82.2557 165.333V165.583H85.2516V165.333V165.083H82.2557V165.333ZM92.2421 165.333V165.583H95.238V165.333V165.083H92.2421V165.333ZM102.229 165.333V165.583H105.224V165.333V165.083H102.229V165.333ZM112.215 165.333V165.583H115.211V165.333V165.083H112.215V165.333ZM122.201 165.333V165.583H125.197V165.333V165.083H122.201V165.333ZM132.188 165.333V165.583H135.184V165.333V165.083H132.188V165.333ZM142.174 165.333V165.583H145.17V165.333V165.083H142.174V165.333ZM152.161 165.333V165.583H155.157V165.333V165.083H152.161V165.333ZM162.147 165.333V165.583H165.143V165.333V165.083H162.147V165.333ZM172.134 165.333V165.583H175.13V165.333V165.083H172.134V165.333ZM182.12 165.333V165.583H185.116V165.333V165.083H182.12V165.333ZM192.107 165.333V165.583H195.102V165.333V165.083H192.107V165.333ZM202.093 165.333V165.583H205.089V165.333V165.083H202.093V165.333ZM212.079 165.333V165.583H215.075V165.333V165.083H212.079V165.333ZM222.066 165.333V165.583H225.062V165.333V165.083H222.066V165.333ZM232.052 165.333V165.583H235.048V165.333V165.083H232.052V165.333ZM242.039 165.333V165.583H245.035V165.333V165.083H242.039V165.333ZM252.025 165.333V165.583H255.021V165.333V165.083H252.025V165.333ZM262.012 165.333V165.583H265.008V165.333V165.083H262.012V165.333ZM271.998 165.333V165.583H274.994V165.333V165.083H271.998V165.333ZM281.984 165.333V165.583H284.98V165.333V165.083H281.984V165.333ZM291.971 165.333V165.583H294.967V165.333V165.083H291.971V165.333ZM301.957 165.333V165.583H304.953V165.333V165.083H301.957V165.333ZM311.944 165.333V165.583H314.94V165.333V165.083H311.944V165.333ZM321.93 165.333V165.583H324.926V165.333V165.083H321.93V165.333ZM331.917 165.333V165.583H334.913V165.333V165.083H331.917V165.333ZM341.903 165.333V165.583H344.899V165.333V165.083H341.903V165.333ZM351.89 165.333V165.583H354.885V165.333V165.083H351.89V165.333ZM361.876 165.333V165.583H364.872V165.333V165.083H361.876V165.333ZM371.862 165.333V165.583H374.858V165.333V165.083H371.862V165.333ZM381.849 165.333V165.583H384.845V165.333V165.083H381.849V165.333ZM391.835 165.333V165.583H393.333V165.333V165.083H391.835V165.333Z" fill="black"/>
</g>
<defs>
<filter id="filter0_d_262_7606" x="0" y="0" width="782.667" height="244.667" filterUnits="userSpaceOnUse" color-interpolation-filters="sRGB">
<feFlood flood-opacity="0" result="BackgroundImageFix"/>
<feColorMatrix in="SourceAlpha" type="matrix" values="0 0 0 0 0 0 0 0 0 0 0 0 0 0 0 0 0 0 127 0" result="hardAlpha"/>
<feOffset dy="4"/>
<feGaussianBlur stdDeviation="2"/>
<feComposite in2="hardAlpha" operator="out"/>
<feColorMatrix type="matrix" values="0 0 0 0 0 0 0 0 0 0 0 0 0 0 0 0 0 0 0.25 0"/>
<feBlend mode="normal" in2="BackgroundImageFix" result="effect1_dropShadow_262_7606"/>
<feBlend mode="normal" in="SourceGraphic" in2="effect1_dropShadow_262_7606" result="shape"/>
</filter>
</defs>
</svg>
