<svg width="783" height="245" viewBox="0 0 783 245" fill="none" xmlns="http://www.w3.org/2000/svg">
<g filter="url(#filter0_d_262_7607)">
<path d="M6.66663 235.333C6.66663 236.07 6.0697 236.667 5.33331 236.667C4.59692 236.667 4 236.07 4 235.333C4 234.597 4.59692 234 5.33331 234C6.0697 234 6.66663 234.597 6.66663 235.333ZM778.667 1.33325C778.667 2.06963 778.07 2.66659 777.333 2.66659C776.597 2.66659 776 2.06963 776 1.33325C776 0.596872 776.597 -8.14199e-05 777.333 -8.14199e-05C778.07 -8.14199e-05 778.667 0.596872 778.667 1.33325ZM388.847 165.583C388.709 165.583 388.597 165.472 388.597 165.333C388.597 165.195 388.709 165.083 388.847 165.083V165.333V165.583ZM381.91 165.083C382.049 165.083 382.16 165.195 382.16 165.333C382.16 165.472 382.049 165.583 381.91 165.583V165.333V165.083ZM378.938 165.583C378.8 165.583 378.688 165.472 378.688 165.333C378.688 165.195 378.8 165.083 378.938 165.083V165.333V165.583ZM372.001 165.083C372.139 165.083 372.251 165.195 372.251 165.333C372.251 165.472 372.139 165.583 372.001 165.583V165.333V165.083ZM369.028 165.583C368.89 165.583 368.778 165.472 368.778 165.333C368.778 165.195 368.89 165.083 369.028 165.083V165.333V165.583ZM362.092 165.083C362.23 165.083 362.342 165.195 362.342 165.333C362.342 165.472 362.23 165.583 362.092 165.583V165.333V165.083ZM359.119 165.583C358.981 165.583 358.869 165.472 358.869 165.333C358.869 165.195 358.981 165.083 359.119 165.083V165.333V165.583ZM352.183 165.083C352.321 165.083 352.433 165.195 352.433 165.333C352.433 165.472 352.321 165.583 352.183 165.583V165.333V165.083ZM349.21 165.583C349.072 165.583 348.96 165.472 348.96 165.333C348.96 165.195 349.072 165.083 349.21 165.083V165.333V165.583ZM342.274 165.083C342.412 165.083 342.524 165.195 342.524 165.333C342.524 165.472 342.412 165.583 342.274 165.583V165.333V165.083ZM339.301 165.583C339.163 165.583 339.051 165.472 339.051 165.333C339.051 165.195 339.163 165.083 339.301 165.083V165.333V165.583ZM332.364 165.083C332.502 165.083 332.614 165.195 332.614 165.333C332.614 165.472 332.502 165.583 332.364 165.583V165.333V165.083ZM329.392 165.583C329.253 165.583 329.142 165.472 329.142 165.333C329.142 165.195 329.253 165.083 329.392 165.083V165.333V165.583ZM322.455 165.083C322.593 165.083 322.705 165.195 322.705 165.333C322.705 165.472 322.593 165.583 322.455 165.583V165.333V165.083ZM319.482 165.583C319.344 165.583 319.232 165.472 319.232 165.333C319.232 165.195 319.344 165.083 319.482 165.083V165.333V165.583ZM312.546 165.083C312.684 165.083 312.796 165.195 312.796 165.333C312.796 165.472 312.684 165.583 312.546 165.583V165.333V165.083ZM309.573 165.583C309.435 165.583 309.323 165.472 309.323 165.333C309.323 165.195 309.435 165.083 309.573 165.083V165.333V165.583ZM302.637 165.083C302.775 165.083 302.887 165.195 302.887 165.333C302.887 165.472 302.775 165.583 302.637 165.583V165.333V165.083ZM299.664 165.583C299.526 165.583 299.414 165.472 299.414 165.333C299.414 165.195 299.526 165.083 299.664 165.083V165.333V165.583ZM292.727 165.083C292.865 165.083 292.977 165.195 292.977 165.333C292.977 165.472 292.865 165.583 292.727 165.583V165.333V165.083ZM289.755 165.583C289.617 165.583 289.505 165.472 289.505 165.333C289.505 165.195 289.617 165.083 289.755 165.083V165.333V165.583ZM282.818 165.083C282.956 165.083 283.068 165.195 283.068 165.333C283.068 165.472 282.956 165.583 282.818 165.583V165.333V165.083ZM279.845 165.583C279.707 165.583 279.595 165.472 279.595 165.333C279.595 165.195 279.707 165.083 279.845 165.083V165.333V165.583ZM272.909 165.083C273.047 165.083 273.159 165.195 273.159 165.333C273.159 165.472 273.047 165.583 272.909 165.583V165.333V165.083ZM269.936 165.583C269.798 165.583 269.686 165.472 269.686 165.333C269.686 165.195 269.798 165.083 269.936 165.083V165.333V165.583ZM263 165.083C263.138 165.083 263.25 165.195 263.25 165.333C263.25 165.472 263.138 165.583 263 165.583V165.333V165.083ZM260.027 165.583C259.889 165.583 259.777 165.472 259.777 165.333C259.777 165.195 259.889 165.083 260.027 165.083V165.333V165.583ZM253.09 165.083C253.229 165.083 253.34 165.195 253.34 165.333C253.34 165.472 253.229 165.583 253.09 165.583V165.333V165.083ZM250.118 165.583C249.98 165.583 249.868 165.472 249.868 165.333C249.868 165.195 249.98 165.083 250.118 165.083V165.333V165.583ZM243.181 165.083C243.319 165.083 243.431 165.195 243.431 165.333C243.431 165.472 243.319 165.583 243.181 165.583V165.333V165.083ZM240.208 165.583C240.07 165.583 239.958 165.472 239.958 165.333C239.958 165.195 240.07 165.083 240.208 165.083V165.333V165.583ZM233.272 165.083C233.41 165.083 233.522 165.195 233.522 165.333C233.522 165.472 233.41 165.583 233.272 165.583V165.333V165.083ZM230.299 165.583C230.161 165.583 230.049 165.472 230.049 165.333C230.049 165.195 230.161 165.083 230.299 165.083V165.333V165.583ZM223.363 165.083C223.501 165.083 223.613 165.195 223.613 165.333C223.613 165.472 223.501 165.583 223.363 165.583V165.333V165.083ZM220.39 165.583C220.252 165.583 220.14 165.472 220.14 165.333C220.14 165.195 220.252 165.083 220.39 165.083V165.333V165.583ZM213.454 165.083C213.592 165.083 213.704 165.195 213.704 165.333C213.704 165.472 213.592 165.583 213.454 165.583V165.333V165.083ZM210.481 165.583C210.343 165.583 210.231 165.472 210.231 165.333C210.231 165.195 210.343 165.083 210.481 165.083V165.333V165.583ZM203.544 165.083C203.682 165.083 203.794 165.195 203.794 165.333C203.794 165.472 203.682 165.583 203.544 165.583V165.333V165.083ZM200.572 165.583C200.434 165.583 200.322 165.472 200.322 165.333C200.322 165.195 200.434 165.083 200.572 165.083V165.333V165.583ZM193.635 165.083C193.773 165.083 193.885 165.195 193.885 165.333C193.885 165.472 193.773 165.583 193.635 165.583V165.333V165.083ZM190.662 165.583C190.524 165.583 190.412 165.472 190.412 165.333C190.412 165.195 190.524 165.083 190.662 165.083V165.333V165.583ZM183.726 165.083C183.864 165.083 183.976 165.195 183.976 165.333C183.976 165.472 183.864 165.583 183.726 165.583V165.333V165.083ZM180.753 165.583C180.615 165.583 180.503 165.472 180.503 165.333C180.503 165.195 180.615 165.083 180.753 165.083V165.333V165.583ZM173.817 165.083C173.955 165.083 174.067 165.195 174.067 165.333C174.067 165.472 173.955 165.583 173.817 165.583V165.333V165.083ZM170.844 165.583C170.706 165.583 170.594 165.472 170.594 165.333C170.594 165.195 170.706 165.083 170.844 165.083V165.333V165.583ZM163.907 165.083C164.046 165.083 164.157 165.195 164.157 165.333C164.157 165.472 164.046 165.583 163.907 165.583V165.333V165.083ZM160.935 165.583C160.797 165.583 160.685 165.472 160.685 165.333C160.685 165.195 160.797 165.083 160.935 165.083V165.333V165.583ZM153.998 165.083C154.136 165.083 154.248 165.195 154.248 165.333C154.248 165.472 154.136 165.583 153.998 165.583V165.333V165.083ZM151.025 165.583C150.887 165.583 150.775 165.472 150.775 165.333C150.775 165.195 150.887 165.083 151.025 165.083V165.333V165.583ZM144.089 165.083C144.227 165.083 144.339 165.195 144.339 165.333C144.339 165.472 144.227 165.583 144.089 165.583V165.333V165.083ZM141.116 165.583C140.978 165.583 140.866 165.472 140.866 165.333C140.866 165.195 140.978 165.083 141.116 165.083V165.333V165.583ZM134.18 165.083C134.318 165.083 134.43 165.195 134.43 165.333C134.43 165.472 134.318 165.583 134.18 165.583V165.333V165.083ZM131.207 165.583C131.069 165.583 130.957 165.472 130.957 165.333C130.957 165.195 131.069 165.083 131.207 165.083V165.333V165.583ZM124.271 165.083C124.409 165.083 124.521 165.195 124.521 165.333C124.521 165.472 124.409 165.583 124.271 165.583V165.333V165.083ZM121.298 165.583C121.16 165.583 121.048 165.472 121.048 165.333C121.048 165.195 121.16 165.083 121.298 165.083V165.333V165.583ZM114.361 165.083C114.499 165.083 114.611 165.195 114.611 165.333C114.611 165.472 114.499 165.583 114.361 165.583V165.333V165.083ZM111.389 165.583C111.25 165.583 111.139 165.472 111.139 165.333C111.139 165.195 111.25 165.083 111.389 165.083V165.333V165.583ZM104.452 165.083C104.59 165.083 104.702 165.195 104.702 165.333C104.702 165.472 104.59 165.583 104.452 165.583V165.333V165.083ZM101.479 165.583C101.341 165.583 101.229 165.472 101.229 165.333C101.229 165.195 101.341 165.083 101.479 165.083V165.333V165.583ZM94.5428 165.083C94.6809 165.083 94.7928 165.195 94.7928 165.333C94.7928 165.472 94.6809 165.583 94.5428 165.583V165.333V165.083ZM91.57 165.583C91.4319 165.583 91.32 165.472 91.32 165.333C91.32 165.195 91.4319 165.083 91.57 165.083V165.333V165.583ZM84.6336 165.083C84.7717 165.083 84.8836 165.195 84.8836 165.333C84.8836 165.472 84.7717 165.583 84.6336 165.583V165.333V165.083ZM81.6608 165.583C81.5227 165.583 81.4108 165.472 81.4108 165.333C81.4108 165.195 81.5227 165.083 81.6608 165.083V165.333V165.583ZM74.7244 165.083C74.8624 165.083 74.9744 165.195 74.9744 165.333C74.9744 165.472 74.8624 165.583 74.7244 165.583V165.333V165.083ZM71.7515 165.583C71.6135 165.583 71.5015 165.472 71.5015 165.333C71.5015 165.195 71.6135 165.083 71.7515 165.083V165.333V165.583ZM64.8151 165.083C64.9532 165.083 65.0651 165.195 65.0651 165.333C65.0651 165.472 64.9532 165.583 64.8151 165.583V165.333V165.083ZM61.8489 165.593C61.7109 165.595 61.5975 165.484 61.5957 165.346C61.5939 165.208 61.7044 165.095 61.8425 165.093L61.8457 165.343L61.8489 165.593ZM55.0895 165.395C55.2271 165.384 55.3475 165.487 55.3583 165.625C55.3691 165.762 55.2664 165.883 55.1287 165.894L55.1091 165.644L55.0895 165.395ZM52.2958 166.161C52.1586 166.176 52.035 166.077 52.0198 165.94C52.0046 165.803 52.1035 165.679 52.2408 165.664L52.2682 165.913L52.2958 166.161ZM45.5468 166.689C45.6822 166.662 45.8138 166.75 45.8408 166.886C45.8677 167.021 45.7798 167.153 45.6444 167.18L45.5956 166.934L45.5468 166.689ZM42.8428 167.798C42.7087 167.831 42.5734 167.749 42.5408 167.614C42.5081 167.48 42.5905 167.345 42.7246 167.312L42.7837 167.555L42.8428 167.798ZM36.2463 169.272C36.3759 169.225 36.5195 169.291 36.5672 169.421C36.6149 169.55 36.5485 169.694 36.4189 169.742L36.3326 169.507L36.2463 169.272ZM33.7746 170.796C33.6478 170.851 33.5007 170.793 33.446 170.666C33.3913 170.539 33.4498 170.392 33.5765 170.337L33.6755 170.567L33.7746 170.796ZM27.5535 173.46C27.671 173.387 27.8251 173.424 27.8975 173.541C27.97 173.659 27.9335 173.813 27.816 173.885L27.6848 173.672L27.5535 173.46ZM25.4246 175.474C25.3123 175.554 25.1561 175.528 25.0759 175.416C24.9955 175.304 25.0215 175.147 25.1338 175.067L25.2792 175.27L25.4246 175.474ZM19.9755 179.443C20.0729 179.345 20.2312 179.345 20.329 179.442C20.4269 179.54 20.4273 179.698 20.3299 179.796L20.1527 179.62L19.9755 179.443ZM18.3843 181.898C18.2942 182.003 18.1364 182.015 18.0317 181.925C17.927 181.835 17.9152 181.677 18.0052 181.572L18.1947 181.735L18.3843 181.898ZM14.0317 187.051C14.1034 186.933 14.2572 186.896 14.3752 186.968C14.4931 187.04 14.5306 187.193 14.4588 187.311L14.2452 187.181L14.0317 187.051ZM13.0493 189.81C12.9854 189.932 12.8344 189.98 12.712 189.916C12.5896 189.852 12.5422 189.701 12.6061 189.579L12.8277 189.694L13.0493 189.81ZM9.90356 195.781C9.9502 195.651 10.0933 195.584 10.2233 195.631C10.3533 195.677 10.4208 195.82 10.3742 195.95L10.1389 195.866L9.90356 195.781ZM9.47443 198.68C9.43451 198.812 9.29498 198.887 9.16284 198.847C9.03064 198.807 8.95587 198.667 8.99573 198.535L9.23511 198.607L9.47443 198.68ZM7.38873 205.103C7.41492 204.967 7.54602 204.879 7.68158 204.905C7.81714 204.931 7.90582 205.062 7.8797 205.198L7.63422 205.15L7.38873 205.103ZM7.38739 208.034C7.36621 208.17 7.23846 208.264 7.10205 208.243C6.96558 208.221 6.87213 208.094 6.89325 207.957L7.14032 207.996L7.38739 208.034ZM6.1062 214.665C6.11774 214.527 6.23859 214.425 6.37616 214.437C6.51379 214.448 6.61597 214.569 6.60443 214.707L6.35535 214.686L6.1062 214.665ZM6.3985 217.581C6.3902 217.719 6.27173 217.824 6.13391 217.816C5.99609 217.807 5.89111 217.689 5.89941 217.551L6.14899 217.566L6.3985 217.581ZM5.62689 224.297C5.63043 224.159 5.74518 224.05 5.88324 224.053C6.02124 224.057 6.13025 224.172 6.12671 224.31L5.87683 224.303L5.62689 224.297ZM6.05872 227.198C6.05554 227.336 5.94104 227.446 5.80304 227.443C5.66498 227.439 5.55566 227.325 5.55884 227.187L5.80878 227.193L6.05872 227.198ZM5.26111 233.881C5.27435 233.743 5.39648 233.643 5.53394 233.656C5.67133 233.669 5.77203 233.791 5.75885 233.929L5.50995 233.905L5.26111 233.881ZM777.496 2.78382C777.488 2.92168 777.37 3.02737 777.232 3.01988C777.095 3.01238 776.989 2.89454 776.996 2.75668L777.246 2.77025L777.496 2.78382ZM776.75 9.81012C776.753 9.67208 776.868 9.5626 777.006 9.56559C777.144 9.56857 777.253 9.6829 777.25 9.82093L777 9.81553L776.75 9.81012ZM777.195 12.8517C777.192 12.9897 777.079 13.0999 776.941 13.0977C776.803 13.0956 776.692 12.9819 776.695 12.8438L776.945 12.8477L777.195 12.8517ZM776.61 19.8481C776.611 19.7101 776.724 19.5993 776.862 19.6007C777 19.602 777.111 19.7151 777.11 19.8531L776.86 19.8506L776.61 19.8481ZM777.08 22.886C777.078 23.024 776.965 23.1349 776.827 23.1335C776.689 23.1322 776.578 23.0191 776.58 22.8811L776.83 22.8835L777.08 22.886ZM776.503 29.9073C776.505 29.7692 776.618 29.6587 776.756 29.6604C776.895 29.6622 777.005 29.7755 777.003 29.9136L776.753 29.9104L776.503 29.9073ZM776.962 32.9073C776.96 33.0453 776.847 33.1556 776.709 33.1535C776.571 33.1515 776.46 33.0379 776.462 32.8998L776.712 32.9036L776.962 32.9073ZM776.334 39.934C776.337 39.7959 776.451 39.6865 776.589 39.6895C776.727 39.6926 776.837 39.807 776.834 39.945L776.584 39.9395L776.334 39.934ZM776.761 42.9579C776.758 43.0959 776.643 43.2049 776.505 43.2013C776.367 43.1978 776.258 43.083 776.262 42.9449L776.512 42.9514L776.761 42.9579ZM776.044 49.965C776.049 49.827 776.165 49.7193 776.303 49.7243C776.441 49.7293 776.549 49.8452 776.544 49.9832L776.294 49.9741L776.044 49.965ZM776.426 52.9971C776.42 53.135 776.304 53.2422 776.166 53.2365C776.028 53.2308 775.921 53.1143 775.927 52.9763L776.176 52.9867L776.426 52.9971ZM775.589 59.9948C775.596 59.8569 775.714 59.7513 775.852 59.7589C775.99 59.7665 776.096 59.8844 776.088 60.0223L775.839 60.0085L775.589 59.9948ZM775.913 63.0307C775.905 63.1685 775.786 63.2733 775.648 63.2649C775.511 63.2564 775.406 63.1378 775.414 63L775.664 63.0154L775.913 63.0307ZM774.928 70.0076C774.938 69.8699 775.059 69.767 775.196 69.7777C775.334 69.7884 775.437 69.9087 775.426 70.0464L775.177 70.027L774.928 70.0076ZM775.181 73.0489C775.169 73.1865 775.048 73.2885 774.911 73.2767C774.773 73.2649 774.671 73.1439 774.683 73.0063L774.932 73.0276L775.181 73.0489ZM774.016 79.9987C774.03 79.8614 774.153 79.7618 774.291 79.7764C774.428 79.7908 774.528 79.9139 774.513 80.0512L774.265 80.025L774.016 79.9987ZM774.183 83.0485C774.167 83.1857 774.043 83.2841 773.906 83.2683C773.769 83.2526 773.67 83.1286 773.686 82.9914L773.934 83.02L774.183 83.0485ZM772.802 89.9563C772.821 89.8196 772.947 89.7242 773.084 89.7432C773.221 89.7623 773.316 89.8886 773.297 90.0254L773.049 89.9908L772.802 89.9563ZM772.864 93.0119C772.843 93.1485 772.716 93.2424 772.579 93.2218C772.443 93.2012 772.349 93.0738 772.369 92.9373L772.616 92.9746L772.864 93.0119ZM771.222 99.8647C771.246 99.7289 771.377 99.6387 771.512 99.6633C771.648 99.6879 771.738 99.818 771.714 99.9538L771.468 99.9093L771.222 99.8647ZM771.158 102.907C771.132 103.042 771 103.131 770.865 103.104C770.729 103.078 770.641 102.946 770.668 102.811L770.913 102.859L771.158 102.907ZM769.201 109.671C769.232 109.537 769.367 109.453 769.501 109.485C769.636 109.516 769.719 109.651 769.688 109.785L769.444 109.728L769.201 109.671ZM768.973 112.732C768.94 112.866 768.804 112.947 768.67 112.913C768.536 112.88 768.455 112.744 768.488 112.61L768.731 112.671L768.973 112.732ZM766.624 119.374C766.664 119.242 766.803 119.167 766.936 119.207C767.068 119.247 767.143 119.386 767.103 119.518L766.863 119.446L766.624 119.374ZM766.207 122.38C766.164 122.511 766.023 122.583 765.892 122.54C765.761 122.497 765.689 122.356 765.732 122.225L765.969 122.302L766.207 122.38ZM763.371 128.831C763.421 128.702 763.566 128.639 763.695 128.689C763.824 128.74 763.887 128.885 763.836 129.013L763.604 128.922L763.371 128.831ZM762.687 131.823C762.633 131.95 762.486 132.009 762.359 131.955C762.232 131.901 762.173 131.754 762.227 131.627L762.457 131.725L762.687 131.823ZM759.24 137.959C759.304 137.836 759.455 137.789 759.577 137.853C759.7 137.917 759.747 138.068 759.683 138.19L759.462 138.074L759.24 137.959ZM758.235 140.838C758.166 140.958 758.014 140.999 757.894 140.93C757.774 140.862 757.732 140.709 757.801 140.589L758.018 140.714L758.235 140.838ZM754.016 146.48C754.097 146.368 754.253 146.343 754.365 146.424C754.477 146.505 754.502 146.661 754.421 146.773L754.219 146.627L754.016 146.48ZM752.6 149.162C752.514 149.27 752.356 149.287 752.249 149.2C752.141 149.114 752.124 148.956 752.211 148.849L752.405 149.006L752.6 149.162ZM747.465 153.99C747.566 153.895 747.724 153.9 747.819 154.001C747.913 154.102 747.908 154.26 747.807 154.354L747.636 154.172L747.465 153.99ZM745.533 156.349C745.426 156.437 745.269 156.421 745.181 156.314C745.094 156.207 745.11 156.05 745.217 155.962L745.375 156.156L745.533 156.349ZM739.472 159.908C739.592 159.84 739.745 159.883 739.813 160.003C739.881 160.123 739.838 160.275 739.718 160.343L739.595 160.126L739.472 159.908ZM737.028 161.733C736.903 161.791 736.754 161.737 736.695 161.612C736.637 161.487 736.691 161.338 736.816 161.28L736.922 161.506L737.028 161.733ZM730.253 163.661C730.386 163.625 730.523 163.705 730.559 163.838C730.594 163.972 730.514 164.109 730.381 164.144L730.317 163.902L730.253 163.661ZM727.456 164.806C727.321 164.832 727.19 164.742 727.164 164.607C727.139 164.471 727.228 164.34 727.364 164.315L727.41 164.56L727.456 164.806ZM720.422 165.06C720.56 165.055 720.675 165.164 720.68 165.302C720.684 165.44 720.576 165.555 720.438 165.559L720.43 165.309L720.422 165.06ZM717.388 165.583C717.25 165.583 717.138 165.471 717.138 165.333C717.138 165.195 717.25 165.083 717.388 165.083V165.333V165.583ZM710.397 165.083C710.536 165.083 710.647 165.195 710.647 165.333C710.647 165.471 710.536 165.583 710.397 165.583V165.333V165.083ZM707.402 165.583C707.263 165.583 707.152 165.471 707.152 165.333C707.152 165.195 707.263 165.083 707.402 165.083V165.333V165.583ZM700.411 165.083C700.549 165.083 700.661 165.195 700.661 165.333C700.661 165.471 700.549 165.583 700.411 165.583V165.333V165.083ZM697.415 165.583C697.277 165.583 697.165 165.471 697.165 165.333C697.165 165.195 697.277 165.083 697.415 165.083V165.333V165.583ZM690.425 165.083C690.563 165.083 690.675 165.195 690.675 165.333C690.675 165.471 690.563 165.583 690.425 165.583V165.333V165.083ZM687.429 165.583C687.291 165.583 687.179 165.471 687.179 165.333C687.179 165.195 687.291 165.083 687.429 165.083V165.333V165.583ZM680.438 165.083C680.576 165.083 680.688 165.195 680.688 165.333C680.688 165.471 680.576 165.583 680.438 165.583V165.333V165.083ZM677.442 165.583C677.304 165.583 677.192 165.471 677.192 165.333C677.192 165.195 677.304 165.083 677.442 165.083V165.333V165.583ZM670.452 165.083C670.59 165.083 670.702 165.195 670.702 165.333C670.702 165.471 670.59 165.583 670.452 165.583V165.333V165.083ZM667.456 165.583C667.318 165.583 667.206 165.471 667.206 165.333C667.206 165.195 667.318 165.083 667.456 165.083V165.333V165.583ZM660.465 165.083C660.603 165.083 660.715 165.195 660.715 165.333C660.715 165.471 660.603 165.583 660.465 165.583V165.333V165.083ZM657.469 165.583C657.331 165.583 657.219 165.471 657.219 165.333C657.219 165.195 657.331 165.083 657.469 165.083V165.333V165.583ZM650.479 165.083C650.617 165.083 650.729 165.195 650.729 165.333C650.729 165.471 650.617 165.583 650.479 165.583V165.333V165.083ZM647.483 165.583C647.345 165.583 647.233 165.471 647.233 165.333C647.233 165.195 647.345 165.083 647.483 165.083V165.333V165.583ZM640.492 165.083C640.63 165.083 640.742 165.195 640.742 165.333C640.742 165.471 640.63 165.583 640.492 165.583V165.333V165.083ZM637.496 165.583C637.358 165.583 637.246 165.471 637.246 165.333C637.246 165.195 637.358 165.083 637.496 165.083V165.333V165.583ZM630.506 165.083C630.644 165.083 630.756 165.195 630.756 165.333C630.756 165.471 630.644 165.583 630.506 165.583V165.333V165.083ZM627.51 165.583C627.372 165.583 627.26 165.471 627.26 165.333C627.26 165.195 627.372 165.083 627.51 165.083V165.333V165.583ZM620.519 165.083C620.658 165.083 620.769 165.195 620.769 165.333C620.769 165.471 620.658 165.583 620.519 165.583V165.333V165.083ZM617.524 165.583C617.385 165.583 617.274 165.471 617.274 165.333C617.274 165.195 617.385 165.083 617.524 165.083V165.333V165.583ZM610.533 165.083C610.671 165.083 610.783 165.195 610.783 165.333C610.783 165.471 610.671 165.583 610.533 165.583V165.333V165.083ZM607.537 165.583C607.399 165.583 607.287 165.471 607.287 165.333C607.287 165.195 607.399 165.083 607.537 165.083V165.333V165.583ZM600.547 165.083C600.685 165.083 600.797 165.195 600.797 165.333C600.797 165.471 600.685 165.583 600.547 165.583V165.333V165.083ZM597.551 165.583C597.413 165.583 597.301 165.471 597.301 165.333C597.301 165.195 597.413 165.083 597.551 165.083V165.333V165.583ZM590.56 165.083C590.698 165.083 590.81 165.195 590.81 165.333C590.81 165.471 590.698 165.583 590.56 165.583V165.333V165.083ZM587.564 165.583C587.426 165.583 587.314 165.471 587.314 165.333C587.314 165.195 587.426 165.083 587.564 165.083V165.333V165.583ZM580.574 165.083C580.712 165.083 580.824 165.195 580.824 165.333C580.824 165.471 580.712 165.583 580.574 165.583V165.333V165.083ZM577.578 165.583C577.44 165.583 577.328 165.471 577.328 165.333C577.328 165.195 577.44 165.083 577.578 165.083V165.333V165.583ZM570.587 165.083C570.725 165.083 570.837 165.195 570.837 165.333C570.837 165.471 570.725 165.583 570.587 165.583V165.333V165.083ZM567.591 165.583C567.453 165.583 567.341 165.471 567.341 165.333C567.341 165.195 567.453 165.083 567.591 165.083V165.333V165.583ZM560.601 165.083C560.739 165.083 560.851 165.195 560.851 165.333C560.851 165.471 560.739 165.583 560.601 165.583V165.333V165.083ZM557.605 165.583C557.467 165.583 557.355 165.471 557.355 165.333C557.355 165.195 557.467 165.083 557.605 165.083V165.333V165.583ZM550.614 165.083C550.752 165.083 550.864 165.195 550.864 165.333C550.864 165.471 550.752 165.583 550.614 165.583V165.333V165.083ZM547.618 165.583C547.48 165.583 547.368 165.471 547.368 165.333C547.368 165.195 547.48 165.083 547.618 165.083V165.333V165.583ZM540.628 165.083C540.766 165.083 540.878 165.195 540.878 165.333C540.878 165.471 540.766 165.583 540.628 165.583V165.333V165.083ZM537.632 165.583C537.494 165.583 537.382 165.471 537.382 165.333C537.382 165.195 537.494 165.083 537.632 165.083V165.333V165.583ZM530.642 165.083C530.78 165.083 530.892 165.195 530.892 165.333C530.892 165.471 530.78 165.583 530.642 165.583V165.333V165.083ZM527.646 165.583C527.508 165.583 527.396 165.471 527.396 165.333C527.396 165.195 527.508 165.083 527.646 165.083V165.333V165.583ZM520.655 165.083C520.793 165.083 520.905 165.195 520.905 165.333C520.905 165.471 520.793 165.583 520.655 165.583V165.333V165.083ZM517.659 165.583C517.521 165.583 517.409 165.471 517.409 165.333C517.409 165.195 517.521 165.083 517.659 165.083V165.333V165.583ZM510.669 165.083C510.807 165.083 510.919 165.195 510.919 165.333C510.919 165.471 510.807 165.583 510.669 165.583V165.333V165.083ZM507.673 165.583C507.535 165.583 507.423 165.471 507.423 165.333C507.423 165.195 507.535 165.083 507.673 165.083V165.333V165.583ZM500.682 165.083C500.82 165.083 500.932 165.195 500.932 165.333C500.932 165.471 500.82 165.583 500.682 165.583V165.333V165.083ZM497.686 165.583C497.548 165.583 497.436 165.471 497.436 165.333C497.436 165.195 497.548 165.083 497.686 165.083V165.333V165.583ZM490.696 165.083C490.834 165.083 490.946 165.195 490.946 165.333C490.946 165.471 490.834 165.583 490.696 165.583V165.333V165.083ZM487.7 165.583C487.562 165.583 487.45 165.471 487.45 165.333C487.45 165.195 487.562 165.083 487.7 165.083V165.333V165.583ZM480.709 165.083C480.847 165.083 480.959 165.195 480.959 165.333C480.959 165.471 480.847 165.583 480.709 165.583V165.333V165.083ZM477.713 165.583C477.575 165.583 477.463 165.471 477.463 165.333C477.463 165.195 477.575 165.083 477.713 165.083V165.333V165.583ZM470.723 165.083C470.861 165.083 470.973 165.195 470.973 165.333C470.973 165.471 470.861 165.583 470.723 165.583V165.333V165.083ZM467.727 165.583C467.589 165.583 467.477 165.471 467.477 165.333C467.477 165.195 467.589 165.083 467.727 165.083V165.333V165.583ZM460.736 165.083C460.875 165.083 460.986 165.195 460.986 165.333C460.986 165.471 460.875 165.583 460.736 165.583V165.333V165.083ZM457.741 165.583C457.602 165.583 457.491 165.471 457.491 165.333C457.491 165.195 457.602 165.083 457.741 165.083V165.333V165.583ZM450.75 165.083C450.888 165.083 451 165.195 451 165.333C451 165.471 450.888 165.583 450.75 165.583V165.333V165.083ZM447.754 165.583C447.616 165.583 447.504 165.471 447.504 165.333C447.504 165.195 447.616 165.083 447.754 165.083V165.333V165.583ZM440.764 165.083C440.902 165.083 441.014 165.195 441.014 165.333C441.014 165.471 440.902 165.583 440.764 165.583V165.333V165.083ZM437.768 165.583C437.63 165.583 437.518 165.471 437.518 165.333C437.518 165.195 437.63 165.083 437.768 165.083V165.333V165.583ZM430.777 165.083C430.915 165.083 431.027 165.195 431.027 165.333C431.027 165.471 430.915 165.583 430.777 165.583V165.333V165.083ZM427.781 165.583C427.643 165.583 427.531 165.471 427.531 165.333C427.531 165.195 427.643 165.083 427.781 165.083V165.333V165.583ZM420.791 165.083C420.929 165.083 421.041 165.195 421.041 165.333C421.041 165.471 420.929 165.583 420.791 165.583V165.333V165.083ZM417.795 165.583C417.657 165.583 417.545 165.471 417.545 165.333C417.545 165.195 417.657 165.083 417.795 165.083V165.333V165.583ZM410.804 165.083C410.942 165.083 411.054 165.195 411.054 165.333C411.054 165.471 410.942 165.583 410.804 165.583V165.333V165.083ZM407.808 165.583C407.67 165.583 407.558 165.471 407.558 165.333C407.558 165.195 407.67 165.083 407.808 165.083V165.333V165.583ZM400.818 165.083C400.956 165.083 401.068 165.195 401.068 165.333C401.068 165.471 400.956 165.583 400.818 165.583V165.333V165.083ZM397.822 165.583C397.684 165.583 397.572 165.471 397.572 165.333C397.572 165.195 397.684 165.083 397.822 165.083V165.333V165.583ZM390.831 165.083C390.969 165.083 391.081 165.195 391.081 165.333C391.081 165.471 390.969 165.583 390.831 165.583V165.333V165.083ZM390.333 165.333V165.583H388.847V165.333V165.083H390.333V165.333ZM381.91 165.333V165.583H378.938V165.333V165.083H381.91V165.333ZM372.001 165.333V165.583H369.028V165.333V165.083H372.001V165.333ZM362.092 165.333V165.583H359.119V165.333V165.083H362.092V165.333ZM352.183 165.333V165.583H349.21V165.333V165.083H352.183V165.333ZM342.274 165.333V165.583H339.301V165.333V165.083H342.274V165.333ZM332.364 165.333V165.583H329.392V165.333V165.083H332.364V165.333ZM322.455 165.333V165.583H319.482V165.333V165.083H322.455V165.333ZM312.546 165.333V165.583H309.573V165.333V165.083H312.546V165.333ZM302.637 165.333V165.583H299.664V165.333V165.083H302.637V165.333ZM292.727 165.333V165.583H289.755V165.333V165.083H292.727V165.333ZM282.818 165.333V165.583H279.845V165.333V165.083H282.818V165.333ZM272.909 165.333V165.583H269.936V165.333V165.083H272.909V165.333ZM263 165.333V165.583H260.027V165.333V165.083H263V165.333ZM253.09 165.333V165.583H250.118V165.333V165.083H253.09V165.333ZM243.181 165.333V165.583H240.208V165.333V165.083H243.181V165.333ZM233.272 165.333V165.583H230.299V165.333V165.083H233.272V165.333ZM223.363 165.333V165.583H220.39V165.333V165.083H223.363V165.333ZM213.454 165.333V165.583H210.481V165.333V165.083H213.454V165.333ZM203.544 165.333V165.583H200.572V165.333V165.083H203.544V165.333ZM193.635 165.333V165.583H190.662V165.333V165.083H193.635V165.333ZM183.726 165.333V165.583H180.753V165.333V165.083H183.726V165.333ZM173.817 165.333V165.583H170.844V165.333V165.083H173.817V165.333ZM163.907 165.333V165.583H160.935V165.333V165.083H163.907V165.333ZM153.998 165.333V165.583H151.025V165.333V165.083H153.998V165.333ZM144.089 165.333V165.583H141.116V165.333V165.083H144.089V165.333ZM134.18 165.333V165.583H131.207V165.333V165.083H134.18V165.333ZM124.271 165.333V165.583H121.298V165.333V165.083H124.271V165.333ZM114.361 165.333V165.583H111.389V165.333V165.083H114.361V165.333ZM104.452 165.333V165.583H101.479V165.333V165.083H104.452V165.333ZM94.5428 165.333V165.583H91.57V165.333V165.083H94.5428V165.333ZM84.6336 165.333V165.583H81.6608V165.333V165.083H84.6336V165.333ZM74.7244 165.333V165.583H71.7515V165.333V165.083H74.7244V165.333ZM64.8151 165.333V165.583H63.3288V165.333V165.083H64.8151V165.333ZM63.3288 165.333V165.583C62.8311 165.583 62.3379 165.587 61.8489 165.593L61.8457 165.343L61.8425 165.093C62.3336 165.087 62.829 165.083 63.3288 165.083V165.333ZM55.1091 165.644L55.1287 165.894C54.1653 165.969 53.2212 166.059 52.2958 166.161L52.2682 165.913L52.2408 165.664C53.1716 165.561 54.121 165.471 55.0895 165.395L55.1091 165.644ZM45.5956 166.934L45.6444 167.18C44.6873 167.37 43.7535 167.576 42.8428 167.798L42.7837 167.555L42.7246 167.312C43.6423 167.089 44.5829 166.881 45.5468 166.689L45.5956 166.934ZM36.3326 169.507L36.4189 169.742C35.5101 170.076 34.6289 170.428 33.7746 170.796L33.6755 170.567L33.5765 170.337C34.4394 169.965 35.329 169.61 36.2463 169.272L36.3326 169.507ZM27.6848 173.672L27.816 173.885C26.9871 174.396 26.1904 174.926 25.4246 175.474L25.2792 175.27L25.1338 175.067C25.9089 174.513 26.715 173.977 27.5535 173.46L27.6848 173.672ZM20.1527 179.62L20.3299 179.796C19.6487 180.48 19.0007 181.182 18.3843 181.898L18.1947 181.735L18.0052 181.572C18.6294 180.847 19.2856 180.136 19.9755 179.443L20.1527 179.62ZM14.2452 187.181L14.4588 187.311C13.959 188.133 13.4899 188.966 13.0493 189.81L12.8277 189.694L12.6061 189.579C13.0515 188.726 13.5261 187.882 14.0317 187.051L14.2452 187.181ZM10.1389 195.866L10.3742 195.95C10.0494 196.855 9.75024 197.766 9.47443 198.68L9.23511 198.607L8.99573 198.535C9.27393 197.614 9.57581 196.695 9.90356 195.781L10.1389 195.866ZM7.63422 205.15L7.8797 205.198C7.69653 206.146 7.53326 207.093 7.38739 208.034L7.14032 207.996L6.89325 207.957C7.04004 207.01 7.20441 206.058 7.38873 205.103L7.63422 205.15ZM6.35535 214.686L6.60443 214.707C6.52307 215.679 6.45538 216.638 6.3985 217.581L6.14899 217.566L5.89941 217.551C5.95654 216.605 6.02448 215.642 6.1062 214.665L6.35535 214.686ZM5.87683 224.303L6.12671 224.31C6.10101 225.309 6.08002 226.274 6.05872 227.198L5.80878 227.193L5.55884 227.187C5.58014 226.263 5.60114 225.297 5.62689 224.297L5.87683 224.303ZM5.50995 233.905L5.75885 233.929C5.70923 234.444 5.65057 234.926 5.58026 235.372L5.33331 235.333L5.08636 235.295C5.15479 234.861 5.21228 234.389 5.26111 233.881L5.50995 233.905ZM777.333 1.33325L777.583 1.35017C777.552 1.81069 777.523 2.28875 777.496 2.78382L777.246 2.77025L776.996 2.75668C777.023 2.25964 777.052 1.77933 777.084 1.31634L777.333 1.33325ZM777 9.81553L777.25 9.82093C777.229 10.7965 777.211 11.8074 777.195 12.8517L776.945 12.8477L776.695 12.8438C776.711 11.7988 776.729 10.7869 776.75 9.81012L777 9.81553ZM776.86 19.8506L777.11 19.8531C777.1 20.844 777.09 21.8553 777.08 22.886L776.83 22.8835L776.58 22.8811C776.59 21.8505 776.6 20.8391 776.61 19.8481L776.86 19.8506ZM776.753 29.9104L777.003 29.9136C776.991 30.8987 776.977 31.8969 776.962 32.9073L776.712 32.9036L776.462 32.8998C776.477 31.8899 776.491 30.8921 776.503 29.9073L776.753 29.9104ZM776.584 39.9395L776.834 39.945C776.812 40.9406 776.788 41.9452 776.761 42.9579L776.512 42.9514L776.262 42.9449C776.288 41.9329 776.312 40.929 776.334 39.934L776.584 39.9395ZM776.294 49.9741L776.544 49.9832C776.507 50.9821 776.468 51.9869 776.426 52.9971L776.176 52.9867L775.927 52.9763C775.968 51.967 776.007 50.9631 776.044 49.965L776.294 49.9741ZM775.839 60.0085L776.088 60.0223C776.033 61.0216 775.975 62.0246 775.913 63.0307L775.664 63.0154L775.414 63C775.476 61.9951 775.534 60.9931 775.589 59.9948L775.839 60.0085ZM775.177 70.027L775.426 70.0464C775.348 71.0457 775.267 72.0468 775.181 73.0489L774.932 73.0276L774.683 73.0063C774.769 72.0054 774.85 71.0057 774.928 70.0076L775.177 70.027ZM774.265 80.025L774.513 80.0512C774.408 81.0506 774.298 82.0499 774.183 83.0485L773.934 83.02L773.686 82.9914C773.801 81.9944 773.911 80.9966 774.016 79.9987L774.265 80.025ZM773.049 89.9908L773.297 90.0254C773.158 91.023 773.014 92.0187 772.864 93.0119L772.616 92.9746L772.369 92.9373C772.519 91.946 772.663 90.9521 772.802 89.9563L773.049 89.9908ZM771.468 99.9093L771.714 99.9538C771.535 100.942 771.35 101.927 771.158 102.907L770.913 102.859L770.668 102.811C770.859 101.833 771.043 100.851 771.222 99.8647L771.468 99.9093ZM769.444 109.728L769.688 109.785C769.457 110.774 769.219 111.756 768.973 112.732L768.731 112.671L768.488 112.61C768.733 111.637 768.971 110.657 769.201 109.671L769.444 109.728ZM766.863 119.446L767.103 119.518C766.813 120.481 766.515 121.435 766.207 122.38L765.969 122.302L765.732 122.225C766.038 121.284 766.335 120.333 766.624 119.374L766.863 119.446ZM763.604 128.922L763.836 129.013C763.464 129.962 763.081 130.899 762.687 131.823L762.457 131.725L762.227 131.627C762.619 130.707 763 129.775 763.371 128.831L763.604 128.922ZM759.462 138.074L759.683 138.19C759.213 139.089 758.731 139.972 758.235 140.838L758.018 140.714L757.801 140.589C758.294 139.729 758.773 138.852 759.24 137.959L759.462 138.074ZM754.219 146.627L754.421 146.773C753.83 147.591 753.223 148.388 752.6 149.162L752.405 149.006L752.211 148.849C752.828 148.082 753.43 147.292 754.016 146.48L754.219 146.627ZM747.636 154.172L747.807 154.354C747.068 155.047 746.311 155.713 745.533 156.349L745.375 156.156L745.217 155.962C745.985 155.333 746.734 154.675 747.465 153.99L747.636 154.172ZM739.595 160.126L739.718 160.343C738.842 160.839 737.946 161.303 737.028 161.733L736.922 161.506L736.816 161.28C737.722 160.855 738.607 160.398 739.472 159.908L739.595 160.126ZM730.317 163.902L730.381 164.144C729.426 164.397 728.451 164.618 727.456 164.806L727.41 164.56L727.364 164.315C728.346 164.129 729.309 163.911 730.253 163.661L730.317 163.902ZM720.43 165.309L720.438 165.559C719.925 165.575 719.408 165.583 718.886 165.583V165.333V165.083C719.403 165.083 719.915 165.075 720.422 165.06L720.43 165.309ZM718.886 165.333V165.583H717.388V165.333V165.083H718.886V165.333ZM710.397 165.333V165.583H707.402V165.333V165.083H710.397V165.333ZM700.411 165.333V165.583H697.415V165.333V165.083H700.411V165.333ZM690.425 165.333V165.583H687.429V165.333V165.083H690.425V165.333ZM680.438 165.333V165.583H677.442V165.333V165.083H680.438V165.333ZM670.452 165.333V165.583H667.456V165.333V165.083H670.452V165.333ZM660.465 165.333V165.583H657.469V165.333V165.083H660.465V165.333ZM650.479 165.333V165.583H647.483V165.333V165.083H650.479V165.333ZM640.492 165.333V165.583H637.496V165.333V165.083H640.492V165.333ZM630.506 165.333V165.583H627.51V165.333V165.083H630.506V165.333ZM620.519 165.333V165.583H617.524V165.333V165.083H620.519V165.333ZM610.533 165.333V165.583H607.537V165.333V165.083H610.533V165.333ZM600.547 165.333V165.583H597.551V165.333V165.083H600.547V165.333ZM590.56 165.333V165.583H587.564V165.333V165.083H590.56V165.333ZM580.574 165.333V165.583H577.578V165.333V165.083H580.574V165.333ZM570.587 165.333V165.583H567.591V165.333V165.083H570.587V165.333ZM560.601 165.333V165.583H557.605V165.333V165.083H560.601V165.333ZM550.614 165.333V165.583H547.618V165.333V165.083H550.614V165.333ZM540.628 165.333V165.583H537.632V165.333V165.083H540.628V165.333ZM530.642 165.333V165.583H527.646V165.333V165.083H530.642V165.333ZM520.655 165.333V165.583H517.659V165.333V165.083H520.655V165.333ZM510.669 165.333V165.583H507.673V165.333V165.083H510.669V165.333ZM500.682 165.333V165.583H497.686V165.333V165.083H500.682V165.333ZM490.696 165.333V165.583H487.7V165.333V165.083H490.696V165.333ZM480.709 165.333V165.583H477.713V165.333V165.083H480.709V165.333ZM470.723 165.333V165.583H467.727V165.333V165.083H470.723V165.333ZM460.736 165.333V165.583H457.741V165.333V165.083H460.736V165.333ZM450.75 165.333V165.583H447.754V165.333V165.083H450.75V165.333ZM440.764 165.333V165.583H437.768V165.333V165.083H440.764V165.333ZM430.777 165.333V165.583H427.781V165.333V165.083H430.777V165.333ZM420.791 165.333V165.583H417.795V165.333V165.083H420.791V165.333ZM410.804 165.333V165.583H407.808V165.333V165.083H410.804V165.333ZM400.818 165.333V165.583H397.822V165.333V165.083H400.818V165.333ZM390.831 165.333V165.583H389.333V165.333V165.083H390.831V165.333Z" fill="black"/>
</g>
<defs>
<filter id="filter0_d_262_7607" x="0" y="0" width="782.667" height="244.667" filterUnits="userSpaceOnUse" color-interpolation-filters="sRGB">
<feFlood flood-opacity="0" result="BackgroundImageFix"/>
<feColorMatrix in="SourceAlpha" type="matrix" values="0 0 0 0 0 0 0 0 0 0 0 0 0 0 0 0 0 0 127 0" result="hardAlpha"/>
<feOffset dy="4"/>
<feGaussianBlur stdDeviation="2"/>
<feComposite in2="hardAlpha" operator="out"/>
<feColorMatrix type="matrix" values="0 0 0 0 0 0 0 0 0 0 0 0 0 0 0 0 0 0 0.25 0"/>
<feBlend mode="normal" in2="BackgroundImageFix" result="effect1_dropShadow_262_7607"/>
<feBlend mode="normal" in="SourceGraphic" in2="effect1_dropShadow_262_7607" result="shape"/>
</filter>
</defs>
</svg>
