<svg width="115" height="74" viewBox="0 0 115 74" fill="none" xmlns="http://www.w3.org/2000/svg">
<path fill-rule="evenodd" clip-rule="evenodd" d="M81.4241 57.2401C77.9587 56.0325 74.211 55.9554 70.7456 54.7478C69.6931 54.388 67.6139 53.9512 67.1775 52.7436C66.7668 51.5617 66.7668 50.1742 66.6898 48.9408C66.6384 47.9644 66.6127 46.988 66.6127 46.0117C66.6127 45.3693 68.2556 44.0075 68.615 43.4165C70.0011 41.104 70.1295 37.995 70.3862 35.3742C72.6194 35.9908 72.9018 31.854 73.2868 30.595C73.5692 29.7214 75.2891 23.7089 72.6194 24.5311C73.2612 23.4005 73.5179 22.013 73.6976 20.754C74.211 17.4651 74.4163 13.8679 73.4152 10.6561C71.336 3.97555 64.9442 0.224157 58.1931 0.0186013C51.3393 -0.212649 44.4598 3.07624 41.8929 9.7311C40.6607 12.9686 40.7634 16.4887 41.1741 19.8804C41.3538 21.4221 41.6105 23.1436 42.3806 24.5311C39.8906 23.786 41.2255 29.079 41.5078 30.004C41.9185 31.3144 42.2779 36.0165 44.6139 35.3742C44.8192 37.4554 45.0502 39.588 45.615 41.6179C46 42.9797 46.7958 44.136 47.7199 45.1894C48.1819 45.7033 48.413 45.7547 48.3873 46.4228C48.3616 48.4269 48.413 50.5853 47.8996 52.538C47.3862 54.4908 43.0993 55.313 41.3795 55.6728C36.7589 56.6235 32.4978 57.0603 28.6473 59.938C24.1552 63.2526 21.8192 68.4172 21.8192 73.9929C43.202 73.9929 64.5848 73.9929 85.9677 73.9929C88.3806 73.9929 90.7679 73.9929 93.1808 73.9929C93.1808 66.413 88.6116 59.7325 81.4241 57.2401C84.3248 58.2422 78.5491 56.238 81.4241 57.2401ZM29.5458 64.6401C30.9833 63.1242 32.8058 61.788 34.7824 61.0429C37.4777 60.0151 40.5324 60.0665 43.3304 59.3471C45.6406 58.7561 48.5156 57.8311 50.3125 56.161C51.9554 54.6193 52.1351 52.2554 52.2891 50.1228C52.4174 48.3242 52.3918 46.5512 52.3918 44.7526C52.3918 43.4936 50.9286 42.7742 50.2098 41.7721C49.0547 40.2047 49.0034 37.8665 48.7723 35.9908C48.6697 35.1686 48.644 34.1151 47.9509 33.5499C47.1808 32.9332 46.6161 32.5992 46.231 31.6228C45.7177 30.2867 45.538 28.8478 45.1273 27.4603C44.8706 26.561 45.769 25.713 46.1284 24.9679C46.7958 23.6061 45.6406 21.4992 45.4096 20.086C44.6909 15.8721 44.7165 11.2728 47.7456 7.93249C53.8293 1.20055 67.7679 3.33318 69.7701 12.7887C70.3862 15.7436 70.0011 19.1867 69.1797 22.0644C68.8203 23.2978 68.4096 24.1971 69.1284 25.4047C70.2065 27.1519 69.7444 28.2825 69.231 30.2353C68.8203 31.854 68.3069 32.5735 67.0748 33.5755C66.048 34.3978 66.202 36.4533 66.0223 37.6353C65.817 39.0742 65.6886 40.5901 64.8159 41.7978C64.4822 42.2603 62.6596 43.6992 62.6596 44.1874C62.6596 47.0137 62.5313 49.8915 63.019 52.6922C63.6864 56.6749 67.0235 57.6255 70.3605 58.9874C73.7489 60.2978 77.6764 59.8096 80.9621 61.4283C84.3505 63.0985 87.6105 66.1561 88.586 69.9332C68.2299 69.9332 47.8739 69.9332 27.5179 69.9332C27.1585 69.9332 26.7991 69.9332 26.4397 69.9332C26.9275 67.8005 28.1083 66.1818 29.5458 64.6401C31.9074 62.1478 28.0313 66.2589 29.5458 64.6401Z" fill="#0FDCBC"/>
<path fill-rule="evenodd" clip-rule="evenodd" d="M28.7757 53.9513C30.5725 53.052 32.5234 52.8464 34.5 52.6409C35.2188 52.5638 35.5525 52.0756 35.0134 51.3819C33.9866 50.0714 30.4442 49.8145 28.9554 49.2235C28.0312 48.8638 27.7746 48.5298 27.6975 47.502C27.6719 47.0395 27.4152 44.9839 27.7746 44.6499C28.0312 44.393 29.6484 44.4957 30.0078 44.4444C31.471 44.2645 32.9598 43.9562 34.346 43.4166C34.9364 43.1853 35.5011 42.9027 36.0145 42.543C36.6306 42.0805 35.5525 40.9499 35.2701 40.3332C34.3973 38.4062 34.0123 36.2992 33.8839 34.1923C33.6272 30.0555 34.269 25.893 33.4989 21.7818C32.3438 15.4867 27.4922 12.3263 21.3058 12.3263C17.481 12.3263 13.7076 13.6367 11.577 16.977C9.2154 20.6513 9.34375 25.2249 9.4721 29.4131C9.54911 31.8027 9.65178 34.218 9.31808 36.6075C9.16406 37.6353 8.93304 38.6374 8.57366 39.6138C8.2913 40.3589 6.85379 42.2089 7.41853 42.5943C9.54911 44.1103 13.1429 44.6242 15.7098 44.4187C15.7868 45.6777 16.0179 47.2964 15.5558 48.4784C14.8371 50.3284 9.4721 50.8166 7.85491 51.3562C3.33705 52.8721 0 56.6492 0 61.6596C4.69754 61.6596 9.36942 61.6596 14.067 61.6596C16.1719 61.6596 18.2768 61.6596 20.4074 61.6596C20.7411 61.6596 22.0246 59.27 22.3839 58.8846C24.1808 56.8805 26.3884 55.1589 28.7757 53.9513C31.0859 52.795 25.0279 55.8527 28.7757 53.9513ZM18.1741 57.5485C13.99 57.5485 9.8058 57.5485 5.62165 57.5485C7.4442 54.5166 12.0134 54.7221 15.0167 53.643C17.7891 52.6409 19.5603 50.945 19.8426 47.9902C19.8683 47.6562 19.894 40.4874 19.6116 40.4874C17.3783 40.4103 15.0424 40.4617 12.8092 40.1277C14.5804 34.3978 12.8862 28.4881 13.8359 22.7068C14.529 18.5187 17.1987 16.2062 21.4598 16.2062C25.5413 16.2062 28.5703 18.1075 29.4431 22.2187C30.6752 28.1798 28.9297 34.2694 30.8292 40.1791C29.4174 40.5388 27.9286 40.5902 26.4654 40.6416C25.7467 40.6673 25.0022 40.693 24.2835 40.7187C23.8214 40.7444 23.9754 41.5409 23.9498 41.9263C23.6931 44.727 22.6663 49.1464 24.8996 51.4075C22.4353 52.9492 19.7656 55.0818 18.1741 57.5485Z" fill="#0FDCBC"/>
<path fill-rule="evenodd" clip-rule="evenodd" d="M94.413 61.6596C101.267 61.6596 108.146 61.6596 115 61.6596C115 56.6492 111.637 52.8464 107.119 51.3561C105.04 50.6881 101.036 50.4825 99.5469 48.6839C98.8025 47.7846 99.2132 45.4978 99.2902 44.4186C100.42 44.5214 101.652 44.3415 102.807 44.1874C103.859 44.0332 104.886 43.8277 105.887 43.4679C106.349 43.2881 106.811 43.1082 107.248 42.8513C108.249 42.2603 107.787 42.1575 107.273 41.2839C104.475 36.5818 105.733 30.6207 105.605 25.4561C105.502 21.1652 104.373 16.4631 100.471 14.0478C96.9543 11.8638 91.7433 11.7867 87.9699 13.3284C77.086 17.6964 83.5034 32.1367 79.7813 40.4103C79.1395 41.7978 78.2154 42.286 79.8326 43.1082C80.7311 43.5707 81.7065 43.879 82.682 44.1103C84.1708 44.47 85.711 44.6756 87.2512 44.727C87.5079 44.727 87.3282 47.9645 87.2512 48.2985C86.9688 49.5575 84.2221 49.9172 83.1954 50.1999C82.1429 50.4825 80.3974 50.5596 79.884 51.6645C79.1139 53.3089 82.4253 52.8978 83.2467 53.052C85.8907 53.5402 88.2266 55.0047 90.2802 56.6749C91.7947 57.9082 93.8483 59.6554 94.413 61.6596ZM94.3103 54.6964C93.0012 53.4888 91.6407 52.3068 90.1262 51.3561C92.3851 49.095 91.3326 44.7013 91.0759 41.8749C90.9219 40.2561 90.5625 40.6672 88.9454 40.6159C87.4052 40.5645 85.6596 40.6416 84.1965 40.1534C86.0447 34.4235 84.5302 28.5395 85.48 22.7068C86.1987 18.3131 89.2021 16.1547 93.5659 16.1547C97.519 16.1547 100.24 18.1332 101.061 22.0645C102.319 27.9999 100.394 34.1409 102.217 40.0506C100.035 40.3846 97.7757 40.3075 95.5681 40.3846C95.0291 40.4103 95.0804 46.8339 95.1317 47.3992C95.3114 50.4054 96.6976 52.2297 99.5469 53.386C102.653 54.645 107.505 54.311 109.404 57.4714C107.017 57.4714 104.655 57.4714 102.268 57.4714C100.83 57.4714 99.3929 57.4714 97.9297 57.4714C96.1072 57.4971 95.6451 55.9041 94.3103 54.6964C95.3371 55.6214 93.0268 53.5145 94.3103 54.6964Z" fill="#0FDCBC"/>
</svg>
